<?xml version="1.0" encoding="utf-8"?>
<!-- Generator: Adobe Illustrator 24.2.1, SVG Export Plug-In . SVG Version: 6.00 Build 0)  -->
<svg version="1.1" id="Layer_1" xmlns="http://www.w3.org/2000/svg" xmlns:xlink="http://www.w3.org/1999/xlink" x="0px" y="0px"
	 viewBox="0 0 3456 3456" style="enable-background:new 0 0 3456 3456;" xml:space="preserve">
<style type="text/css">
	.st0{fill:#FFFFFF;}
	.st1{fill:none;}
</style>
<g>
	<path class="st0" d="M1546.9,1716.5c-3.2-3.2-4.2-7.9-4.2-13.9v-35.1c0-0.4,0.4-0.8,0.8-0.8h5.5c0.4,0,0.8,0.4,0.8,0.8v33.1
		c0,4.7,0.3,8.4,2.1,10.6c1.7,2.2,4.5,3.3,9.3,3.3h2.6c4.8,0,7.6-1.2,9.2-3.3c1.9-2.3,2.2-5.9,2.2-10.7v-33c0-0.4,0.4-0.8,0.8-0.8
		h5.5c0.4,0,0.8,0.4,0.8,0.8v35.2c0,6.2-1.2,11.1-4.7,14.2c-2.8,2.5-7,3.8-13.3,3.8h-3.8C1554.1,1720.6,1549.7,1719.2,1546.9,1716.5
		z M1593.4,1666.7h5.5c0.4,0,0.8,0.4,0.8,0.8v22.5h4.5c0.8,0,1.2-0.2,1.7-1.1l15-21.9c0.1-0.2,0.4-0.3,0.7-0.3h5.6
		c0.6,0,1,0.7,0.7,1.2l-16.8,24.3l18.8,26.7c0.4,0.5,0,1.2-0.6,1.2h-6.1c-0.3,0-0.5-0.1-0.6-0.3l-16.8-23.9h-5.8v23.4
		c0,0.4-0.4,0.8-0.8,0.8h-5.5c-0.4,0-0.8-0.4-0.8-0.8v-51.8C1592.6,1667,1593,1666.7,1593.4,1666.7z M1651.4,1667.5
		c0-0.4,0.4-0.8,0.8-0.8h19.6c6.1,0,10.8,0.9,13.8,4c2.6,2.7,5.4,7.7,5.4,22.8s-2.8,20-5.4,22.8c-3,3-7.7,4-13.8,4h-19.6
		c-0.4,0-0.8-0.4-0.8-0.8V1667.5z M1671.2,1714.6c4.2,0,7.1-0.9,8.9-2.7c3.1-3.2,3.3-9.3,3.3-18.5c0-9.2-0.3-15.1-3.3-18.3
		c-1.8-1.9-4.7-2.8-9-2.8h-12.7v42.3H1671.2L1671.2,1714.6z M1721.9,1704.2h-17.4c0.1,4.4,0.5,7.6,2.3,9.3c1.1,1.2,2.8,1.8,5.3,1.8
		h3.9c2.6,0,4.7-0.3,6.4-1.2c0.6-0.4,1.1-0.8,1.6-1.3c0.3-0.3,0.8-0.3,1.1,0l2.9,2.7c0.3,0.3,0.3,0.8,0,1.1
		c-0.8,0.9-1.6,1.6-2.7,2.2c-2.3,1.2-5,1.9-9.2,1.9h-4.5c-3.7,0-7.3-0.7-9.9-3.1c-2.3-2.2-4.1-5.8-4.1-16.1
		c0-10.1,1.7-13.7,3.9-15.8c2.5-2.6,6.2-3.3,10.1-3.3h3.9c4.5,0,7.7,1,9.8,2.9c2.4,2,3.7,5.1,3.7,9.6v2.6
		C1728.8,1701.7,1727.8,1704.2,1721.9,1704.2z M1722.2,1697v-2.3c0-2.2-0.4-4-1.7-5.3c-1.2-1.2-3.1-1.7-5.6-1.7h-3
		c-2.5,0-4.1,0.6-5.2,1.8c-1.9,1.8-2.2,5.1-2.3,9.7h15.6C1721.6,1699.2,1722.2,1698.5,1722.2,1697z M1735,1695.3
		c0-4.9,1-7.8,2.7-9.6c1.8-1.9,4.7-3.3,9.9-3.3h4.7c3,0,5.2,0.2,7,1.2c1.1,0.5,2,1.3,2.7,2.3h0.2c0.7-0.9,1.6-1.7,2.6-2.3
		c1.9-1,4.1-1.3,6.8-1.3h4.5c5.3,0,8.2,1.4,9.9,3.3c1.8,1.9,2.8,4.7,2.8,9.6v24.1c0,0.4-0.4,0.8-0.8,0.8h-5.1
		c-0.4,0-0.8-0.4-0.8-0.8v-20.5c0-5.2-0.2-7.3-1.2-9c-1.2-1.8-3.3-2.1-5.6-2.1h-3.8c-2.2,0-4.2,0.5-5.3,2.1
		c-1.1,1.6-1.1,3.3-1.1,8.3v21.3c0,0.4-0.4,0.8-0.8,0.8h-5.1c-0.4,0-0.8-0.4-0.8-0.8v-21.2c0-5.3-0.1-6.9-0.9-8.3
		c-1-1.6-2.9-2.2-5.4-2.2h-3.9c-2.3,0-4.4,0.3-5.6,2.1c-1.1,1.7-1.2,3.8-1.2,9v20.6c0,0.4-0.4,0.8-0.8,0.8h-5.1
		c-0.4,0-0.8-0.4-0.8-0.8L1735,1695.3L1735,1695.3z M1819.9,1704.2h-17.4c0.1,4.4,0.5,7.6,2.3,9.3c1.1,1.2,2.8,1.8,5.3,1.8h3.9
		c2.6,0,4.7-0.3,6.4-1.2c0.6-0.4,1.1-0.8,1.6-1.3c0.3-0.3,0.8-0.3,1.1,0l2.9,2.7c0.3,0.3,0.3,0.8,0,1.1c-0.8,0.9-1.6,1.6-2.7,2.2
		c-2.3,1.2-5,1.9-9.2,1.9h-4.5c-3.7,0-7.3-0.7-9.9-3.1c-2.3-2.2-4.1-5.8-4.1-16.1c0-10.1,1.7-13.7,3.9-15.8
		c2.5-2.6,6.2-3.3,10.1-3.3h3.9c4.5,0,7.7,1,9.8,2.9c2.4,2,3.7,5.1,3.7,9.6v2.6C1826.8,1701.7,1825.8,1704.2,1819.9,1704.2z
		 M1820.2,1697v-2.3c0-2.2-0.4-4-1.7-5.3c-1.2-1.2-3.1-1.7-5.6-1.7h-3c-2.5,0-4.1,0.6-5.2,1.8c-1.9,1.8-2.2,5.1-2.3,9.7h15.6
		C1819.6,1699.2,1820.2,1698.5,1820.2,1697z M1833.3,1695.3c0-4.9,1-7.8,2.7-9.6c1.8-1.9,4.7-3.3,9.9-3.3h5.4c5.3,0,8.2,1.4,9.9,3.3
		c1.8,1.9,2.8,4.7,2.8,9.6v24.1c0,0.4-0.4,0.8-0.8,0.8h-5c-0.4,0-0.8-0.4-0.8-0.8v-20.6c0-5.2-0.2-7.3-1.2-9
		c-1.2-1.8-3.3-2.1-5.6-2.1h-3.9c-2.4,0-4.4,0.3-5.6,2.1c-1.1,1.7-1.2,3.8-1.2,9v20.6c0,0.4-0.4,0.8-0.8,0.8h-5.1
		c-0.4,0-0.8-0.4-0.8-0.8L1833.3,1695.3L1833.3,1695.3z M1892,1715.6v3.8c0,0.4-0.4,0.8-0.8,0.8h-4.2c-5.1,0-7.7-1.3-9.6-3.2
		c-1.8-1.9-2.8-4.8-2.8-9.6v-19h-4.9c-0.4,0-0.8-0.4-0.8-0.8v-3.8c0-0.4,0.4-0.8,0.8-0.8h4.9v-12.4c0-0.4,0.4-0.8,0.8-0.8h5.1
		c0.4,0,0.8,0.4,0.8,0.8v12.4h7.6c0.4,0,0.8,0.4,0.8,0.8v3.8c0,0.4-0.4,0.8-0.8,0.8h-7.6v15.3c0,5.7,0.2,7.5,1.2,8.9
		c1,1.6,2.9,2.2,5.2,2.2h3.4C1891.6,1714.8,1892,1715.2,1892,1715.6z M1896.9,1670.5c0-2.5,1.6-4.3,4.3-4.3c2.6,0,4.3,1.9,4.3,4.3
		s-1.8,4.3-4.3,4.3C1898.7,1674.7,1896.9,1672.9,1896.9,1670.5z M1898.7,1683h5.1c0.4,0,0.8,0.4,0.8,0.8v35.6c0,0.4-0.4,0.8-0.8,0.8
		h-5.1c-0.4,0-0.8-0.4-0.8-0.8v-35.6C1897.9,1683.3,1898.2,1683,1898.7,1683z M1942.2,1695.3v12c0,5.1-0.5,8.5-2.6,10.6
		c-1.8,1.9-4.8,2.6-9.8,2.6h-5.3c-4,0-7.3-0.9-9.5-3c-2.2-1.9-3.3-4.6-3.3-8.5s1.2-6.6,3.2-8.4c3.5-3.1,7.8-3.9,15.3-3.9h5.3v-1
		c0-3.5-0.3-5.7-1.8-7.1c-0.9-0.9-2.5-1.2-4.7-1.2h-3.3c-3.4,0-5.8,0.5-7.8,2.4c-0.3,0.3-0.8,0.2-1.1-0.1l-2.5-2.9
		c-0.3-0.3-0.3-0.8,0-1.1c2.6-2.7,6.5-3.7,11.3-3.7h4c5,0,8.1,1.3,9.9,3.3C1941.2,1687.6,1942.2,1690.3,1942.2,1695.3z
		 M1935.5,1708.7v-6.8h-5.6c-4.5,0-8,0.5-9.9,2.6c-0.9,1-1.4,2.5-1.4,4.5s0.6,3.6,1.8,4.6c1.2,1.2,2.7,1.8,5.6,1.8h3.2
		c2.6,0,4.3-0.5,5.2-1.6C1935.2,1712.6,1935.5,1710.9,1935.5,1708.7z M1572.4,1788.9l-10.7-20.9h-11.8v20.6c0,0.4-0.4,0.8-0.8,0.8
		h-5.5c-0.4,0-0.8-0.4-0.8-0.8v-52c0-0.4,0.4-0.8,0.8-0.8h18.9c5.1,0,8.6,1,11.1,3c3.3,2.7,4.5,7.2,4.5,12.7c0,7-1.5,11.1-4.7,13.4
		c-1.2,0.9-2.7,1.6-4.4,2l10.9,21.1c0.3,0.5-0.1,1.2-0.7,1.2h-6C1572.8,1789.3,1572.5,1789.2,1572.4,1788.9z M1560.8,1762.4
		c4,0,6.5-0.6,8-2.1c1.6-1.5,1.9-3.8,1.9-7.5v-2.1c0-4-0.9-6.4-2.8-7.8c-1.7-1.1-4.2-1.5-7.5-1.5h-10.6v21H1560.8L1560.8,1762.4z
		 M1608.4,1773.3H1591c0.1,4.4,0.5,7.6,2.3,9.3c1.1,1.2,2.8,1.8,5.3,1.8h3.9c2.6,0,4.7-0.3,6.4-1.2c0.6-0.4,1.1-0.8,1.6-1.3
		c0.3-0.3,0.8-0.3,1.1,0l2.9,2.7c0.3,0.3,0.3,0.8,0,1.1c-0.8,0.9-1.6,1.6-2.7,2.2c-2.3,1.2-5,1.9-9.2,1.9h-4.5
		c-3.7,0-7.3-0.7-9.9-3.1c-2.3-2.2-4.1-5.8-4.1-16.1c0-10.1,1.7-13.7,3.9-15.8c2.5-2.6,6.2-3.3,10.1-3.3h3.9c4.5,0,7.7,1,9.8,2.9
		c2.4,2,3.6,5.1,3.6,9.6v2.6C1615.3,1770.8,1614.3,1773.3,1608.4,1773.3z M1608.7,1766.2v-2.3c0-2.2-0.4-4-1.7-5.3
		c-1.2-1.2-3.1-1.7-5.6-1.7h-3c-2.5,0-4.1,0.6-5.2,1.8c-1.9,1.8-2.2,5.1-2.3,9.7h15.6C1608.1,1768.4,1608.7,1767.7,1608.7,1766.2z
		 M1620.3,1783.8l3-2.9c0.3-0.3,0.9-0.3,1.2,0.1c2,2.5,4.4,3.5,8.1,3.5h3c2.5,0,4.3-0.2,5.4-1.2c1.2-1,1.3-2.7,1.3-4.2
		c0-2.1-0.2-3.1-0.9-4c-0.5-0.7-1.2-1.2-2.8-1.6l-10.2-1.9c-2.3-0.4-4.1-1.3-5.2-2.6c-1.2-1.5-1.7-3.6-1.7-6.3v-1.7
		c0-2.3,0.6-4.3,1.9-5.9c1.9-2.3,5.3-3.6,10.1-3.6h3.2c5,0,8.4,1.2,10.7,3.9c0.3,0.3,0.2,0.8-0.1,1.1l-3.1,3.1
		c-0.3,0.3-0.9,0.3-1.2-0.1c-1.8-1.9-3.9-2.7-6.7-2.7h-2.1c-2.7,0-4.3,0.3-5.4,1.4c-0.6,0.6-1.1,1.4-1.1,3.5c0,1.3,0.2,2.3,0.8,3.1
		c0.5,0.7,1.4,1.2,2.8,1.5l10.2,2c1.6,0.3,3,0.8,4.1,1.6c2.5,1.8,3.1,4.6,3.1,7.8v2.3c0,3-0.9,5.4-3,7.2c-1.9,1.6-5,2.6-9.6,2.6
		h-3.9c-6.1,0-9.1-1-12-4.9C1620,1784.5,1620,1784.1,1620.3,1783.8z M1678.4,1773.3H1661c0.1,4.4,0.5,7.6,2.3,9.3
		c1.1,1.2,2.8,1.8,5.3,1.8h3.9c2.6,0,4.7-0.3,6.4-1.2c0.6-0.4,1.1-0.8,1.6-1.3c0.3-0.3,0.8-0.3,1.1,0l2.9,2.7c0.3,0.3,0.3,0.8,0,1.1
		c-0.8,0.9-1.6,1.6-2.7,2.2c-2.3,1.2-5,1.9-9.2,1.9h-4.5c-3.7,0-7.3-0.7-9.9-3.1c-2.3-2.2-4.1-5.8-4.1-16.1
		c0-10.1,1.7-13.7,3.9-15.8c2.5-2.6,6.2-3.3,10.1-3.3h3.9c4.5,0,7.7,1,9.8,2.9c2.4,2,3.6,5.1,3.6,9.6v2.6
		C1685.4,1770.8,1684.3,1773.3,1678.4,1773.3z M1678.8,1766.2v-2.3c0-2.2-0.4-4-1.7-5.3c-1.2-1.2-3.1-1.7-5.6-1.7h-3
		c-2.5,0-4.1,0.6-5.2,1.8c-1.9,1.8-2.2,5.1-2.3,9.7h15.6C1678.1,1768.4,1678.8,1767.7,1678.8,1766.2z M1720.4,1764.5v12
		c0,5.1-0.5,8.5-2.6,10.6c-1.8,1.9-4.8,2.6-9.8,2.6h-5.3c-4,0-7.3-0.9-9.5-3c-2.2-1.9-3.3-4.6-3.3-8.5c0-3.9,1.2-6.6,3.2-8.4
		c3.5-3.1,7.8-3.9,15.3-3.9h5.3v-1c0-3.5-0.3-5.7-1.8-7.1c-0.9-0.9-2.5-1.2-4.7-1.2h-3.3c-3.4,0-5.8,0.5-7.8,2.4
		c-0.3,0.3-0.8,0.2-1.1-0.1l-2.5-2.9c-0.3-0.3-0.3-0.8,0-1.1c2.6-2.7,6.5-3.7,11.3-3.7h4c5,0,8.1,1.3,9.9,3.3
		C1719.4,1756.7,1720.4,1759.4,1720.4,1764.5z M1713.7,1777.8v-6.8h-5.6c-4.5,0-8,0.5-9.9,2.6c-0.9,1-1.4,2.5-1.4,4.5
		s0.6,3.6,1.8,4.6c1.2,1.2,2.7,1.8,5.6,1.8h3.2c2.6,0,4.3-0.5,5.2-1.6C1713.4,1781.8,1713.7,1780.1,1713.7,1777.8z M1728.2,1764.5
		c0-5,1.1-8,3-9.9c1.8-1.9,4.4-3.1,9.3-3.1h4.4c0.4,0,0.8,0.4,0.8,0.8v3.8c0,0.4-0.4,0.8-0.8,0.8h-3.7c-2.3,0-4.2,0.6-5.3,2.2
		c-0.9,1.5-1.1,3.3-1.1,9v20.5c0,0.4-0.4,0.8-0.8,0.8h-5.1c-0.4,0-0.8-0.4-0.8-0.8L1728.2,1764.5L1728.2,1764.5z M1752.4,1786.6
		c-2.3-2.1-4-5.7-4-15.5v-0.8c0-9.6,1.7-13,3.6-15.2c2.6-2.7,6.3-3.6,10.3-3.6h3.5c3,0,5.9,0.4,7.8,1.2c1.3,0.5,2.5,1.4,3.5,2.6
		c0.3,0.3,0.2,0.8-0.1,1.1l-3.1,3c-0.3,0.3-0.8,0.3-1.1,0c-0.6-0.6-1.1-1-1.8-1.4c-1.4-0.8-3.3-1.1-5.6-1.1h-2.7
		c-2.8,0-5,0.6-6.1,3.1c-0.9,2-1.3,5.4-1.3,10.6c0,5.3,0.4,8.9,1.3,10.8c1.2,2.3,3.2,3,6.1,3h2.5c2.3,0,4.5-0.2,6.2-1.2
		c0.7-0.4,1.3-0.8,1.8-1.3c0.3-0.3,0.8-0.3,1.1,0l2.8,2.8c0.3,0.3,0.3,0.8,0,1.1c-0.9,1-1.9,1.8-3,2.4c-2.2,1.2-5.2,1.7-8.9,1.7h-3
		C1758.5,1789.8,1754.9,1789,1752.4,1786.6z M1785.2,1732.6h5.1c0.4,0,0.8,0.4,0.8,0.8v20.3h0.1c1.9-1.6,4.7-2.1,7.6-2.1h3.6
		c5.3,0,8.2,1.4,9.9,3.3c1.8,1.9,2.8,4.7,2.8,9.6v24.1c0,0.4-0.4,0.8-0.8,0.8h-5.1c-0.4,0-0.8-0.4-0.8-0.8V1768c0-5-0.1-7.4-1.2-9
		c-1.2-1.9-3.4-2.1-5.6-2.1h-4.2c-2.2,0-4.2,0.5-5.3,2.1c-1,1.5-1.2,3.7-1.2,9v20.6c0,0.4-0.4,0.8-0.8,0.8h-4.9
		c-0.4,0-0.8-0.4-0.8-0.8v-55.2C1784.4,1732.9,1784.7,1732.6,1785.2,1732.6z M1858.9,1784.5v4c0,0.4-0.4,0.8-0.8,0.8h-19.3
		c-0.4,0-0.8-0.4-0.8-0.8v-4c0-0.4,0.4-0.8,0.8-0.8h6.2v-42.3h-6.2c-0.4,0-0.8-0.4-0.8-0.8v-4c0-0.4,0.4-0.8,0.8-0.8h19.2
		c0.4,0,0.8,0.4,0.8,0.8v4c0,0.4-0.4,0.8-0.8,0.8h-5.9v42.3h6C1858.6,1783.7,1858.9,1784.1,1858.9,1784.5z M1865.8,1764.5
		c0-4.9,1-7.8,2.7-9.6c1.8-1.9,4.7-3.3,9.9-3.3h5.4c5.3,0,8.2,1.4,9.9,3.3c1.8,1.9,2.8,4.7,2.8,9.6v24.1c0,0.4-0.4,0.8-0.8,0.8h-5.1
		c-0.4,0-0.8-0.4-0.8-0.8V1768c0-5.2-0.2-7.3-1.2-9c-1.2-1.8-3.3-2.1-5.6-2.1h-3.8c-2.4,0-4.4,0.3-5.6,2.1c-1.1,1.7-1.2,3.8-1.2,9
		v20.6c0,0.4-0.4,0.8-0.8,0.8h-5.1c-0.4,0-0.8-0.4-0.8-0.8L1865.8,1764.5L1865.8,1764.5z M1902.4,1783.8l3-2.9
		c0.3-0.3,0.9-0.3,1.2,0.1c2,2.5,4.4,3.5,8.1,3.5h3c2.5,0,4.3-0.2,5.4-1.2c1.2-1,1.3-2.7,1.3-4.2c0-2.1-0.2-3.1-0.9-4
		c-0.5-0.7-1.2-1.2-2.8-1.6l-10.2-1.9c-2.3-0.4-4.1-1.3-5.2-2.6c-1.2-1.5-1.7-3.6-1.7-6.3v-1.7c0-2.3,0.6-4.3,1.9-5.9
		c1.9-2.3,5.3-3.6,10.1-3.6h3.2c5,0,8.4,1.2,10.7,3.9c0.3,0.3,0.2,0.8-0.1,1.1l-3.1,3.1c-0.3,0.3-0.9,0.3-1.2-0.1
		c-1.8-1.9-3.9-2.7-6.7-2.7h-2.4c-2.7,0-4.3,0.3-5.4,1.4c-0.6,0.6-1.1,1.4-1.1,3.5c0,1.3,0.2,2.3,0.8,3.1c0.5,0.7,1.4,1.2,2.8,1.5
		l10.2,2c1.6,0.3,3,0.8,4.1,1.6c2.5,1.8,3.1,4.6,3.1,7.8v2.3c0,3-0.9,5.4-3,7.2c-1.9,1.6-5,2.6-9.6,2.6h-3.9c-6.1,0-9.1-1-12-4.9
		C1902.1,1784.5,1902.1,1784.1,1902.4,1783.8z M1958.3,1784.8v3.8c0,0.4-0.4,0.8-0.8,0.8h-4.2c-5.1,0-7.7-1.3-9.6-3.2
		c-1.8-1.9-2.8-4.8-2.8-9.6v-19h-4.9c-0.4,0-0.8-0.4-0.8-0.8v-3.8c0-0.4,0.4-0.8,0.8-0.8h4.9v-12.5c0-0.4,0.4-0.8,0.8-0.8h5.1
		c0.4,0,0.8,0.4,0.8,0.8v12.4h7.6c0.4,0,0.8,0.4,0.8,0.8v3.8c0,0.4-0.4,0.8-0.8,0.8h-7.6v15.4c0,5.7,0.2,7.5,1.2,8.9
		c1,1.6,2.9,2.2,5.2,2.2h3.4C1958,1784,1958.3,1784.3,1958.3,1784.8z M1963.2,1739.6c0-2.5,1.6-4.3,4.3-4.3c2.7,0,4.3,1.9,4.3,4.3
		s-1.8,4.3-4.3,4.3S1963.2,1742,1963.2,1739.6z M1965,1752.1h5.1c0.4,0,0.8,0.4,0.8,0.8v35.6c0,0.4-0.4,0.8-0.8,0.8h-5.1
		c-0.4,0-0.8-0.4-0.8-0.8v-35.6C1964.2,1752.5,1964.5,1752.1,1965,1752.1z M2000.4,1784.8v3.8c0,0.4-0.4,0.8-0.8,0.8h-4.2
		c-5.1,0-7.7-1.3-9.6-3.2c-1.8-1.9-2.8-4.8-2.8-9.6v-19h-4.8c-0.4,0-0.8-0.4-0.8-0.8v-3.8c0-0.4,0.4-0.8,0.8-0.8h4.9v-12.5
		c0-0.4,0.4-0.8,0.8-0.8h5.1c0.4,0,0.8,0.4,0.8,0.8v12.4h7.6c0.4,0,0.8,0.4,0.8,0.8v3.8c0,0.4-0.4,0.8-0.8,0.8h-7.6v15.4
		c0,5.7,0.2,7.5,1.2,8.9c1,1.6,2.9,2.2,5.2,2.2h3.4C2000.1,1784,2000.4,1784.3,2000.4,1784.8z M2008,1786.5
		c-1.7-1.9-2.7-4.7-2.7-9.6v-24c0-0.4,0.4-0.8,0.8-0.8h5.1c0.4,0,0.8,0.4,0.8,0.8v20.4c0,5,0.1,7.4,1.2,9c1.2,1.9,3.3,2.1,5.6,2.1
		h3.4c2.3,0,4.4-0.2,5.6-2.1c1-1.6,1.1-4,1.1-9v-20.4c0-0.4,0.4-0.8,0.8-0.8h5.1c0.4,0,0.8,0.4,0.8,0.8v23.9c0,4.9-0.9,7.8-2.7,9.6
		c-1.8,1.9-4.7,3.3-9.9,3.3h-4.9C2012.8,1789.8,2009.8,1788.4,2008,1786.5z M2064.6,1784.8v3.8c0,0.4-0.4,0.8-0.8,0.8h-4.2
		c-5.1,0-7.7-1.3-9.6-3.2c-1.8-1.9-2.8-4.8-2.8-9.6v-19h-4.9c-0.4,0-0.8-0.4-0.8-0.8v-3.8c0-0.4,0.4-0.8,0.8-0.8h4.9v-12.5
		c0-0.4,0.4-0.8,0.8-0.8h5.1c0.4,0,0.8,0.4,0.8,0.8v12.4h7.6c0.4,0,0.8,0.4,0.8,0.8v3.8c0,0.4-0.4,0.8-0.8,0.8h-7.6v15.4
		c0,5.7,0.2,7.5,1.2,8.9c1,1.6,2.9,2.2,5.2,2.2h3.4C2064.2,1784,2064.6,1784.3,2064.6,1784.8z M2092.5,1773.3h-17.4
		c0.1,4.4,0.5,7.6,2.3,9.3c1.1,1.2,2.8,1.8,5.3,1.8h3.9c2.6,0,4.7-0.3,6.4-1.2c0.6-0.4,1.1-0.8,1.6-1.3c0.3-0.3,0.8-0.3,1.1,0
		l2.9,2.7c0.3,0.3,0.3,0.8,0,1.1c-0.8,0.9-1.6,1.6-2.7,2.2c-2.3,1.2-5,1.9-9.2,1.9h-4.5c-3.7,0-7.3-0.7-9.9-3.1
		c-2.3-2.2-4.1-5.8-4.1-16.1c0-10.1,1.7-13.7,3.9-15.8c2.5-2.6,6.2-3.3,10.1-3.3h3.9c4.5,0,7.7,1,9.8,2.9c2.4,2,3.7,5.1,3.7,9.6v2.6
		C2099.4,1770.8,2098.4,1773.3,2092.5,1773.3z M2092.8,1766.2v-2.3c0-2.2-0.4-4-1.7-5.3c-1.2-1.2-3.1-1.7-5.6-1.7h-3
		c-2.5,0-4.1,0.6-5.2,1.8c-1.9,1.8-2.2,5.1-2.3,9.7h15.6C2092.2,1768.4,2092.8,1767.7,2092.8,1766.2z M1502.4,1725.7l-34.5-59.8
		c-0.7-1.3-2.3-2.2-3.9-2.2h-69c-1.5,0-3.1,0.9-3.9,2.2l-34.4,59.8c-0.8,1.3-0.8,3.2,0,4.5l34.5,59.7c0.8,1.3,2.4,2.2,3.9,2.2h69
		c1.5,0,3.1-0.9,3.9-2.2l34.5-59.7C1503.2,1728.8,1503.2,1727,1502.4,1725.7z M1396.9,1784.5v-53.8h31.1l15.5,26.9L1396.9,1784.5z
		 M1446.3,1762.4l13.9,24.1h-55.7L1446.3,1762.4z M1396.9,1671.3l46.6,26.9l-15.5,26.9h-31.1V1671.3z M1404.5,1669.3h55.7
		l-13.9,24.1L1404.5,1669.3z M1432.8,1727.9l15.5-26.9l46.6,26.9l-46.6,26.9L1432.8,1727.9z M1492.8,1720.3l-41.7-24.1l13.9-24.1
		L1492.8,1720.3z M1391.3,1676.9v48.2h-27.8L1391.3,1676.9z M1363.5,1730.7h27.8v48.2L1363.5,1730.7z M1465,1783.8l-13.9-24.1
		l41.8-24.1L1465,1783.8z"/>
</g>
<rect x="1319" y="1663.7" class="st1" width="817.6" height="128.4"/>
</svg>
