<svg xmlns="http://www.w3.org/2000/svg" width="744" height="129" viewBox="0 0 744 129">
  <g fill="#FFFFFF">
    <path d="M190.825 52.818C187.64 49.634 186.631 44.896 186.631 38.916L186.631 3.75C186.631 3.313 186.985 2.959 187.422 2.959L192.906 2.959C193.343 2.959 193.697 3.313 193.697 3.75L193.697 36.897C193.697 41.634 194.008 45.284 195.794 47.536 197.502 49.71 200.298 50.875 205.113 50.875L207.754 50.875C212.569 50.875 215.365 49.71 216.996 47.613 218.86 45.283 219.17 41.711 219.17 36.896L219.17 3.75C219.17 3.313 219.524 2.959 219.961 2.959L225.445 2.959C225.882 2.959 226.236 3.313 226.236 3.75L226.236 38.916C226.236 45.129 225.071 50.022 221.576 53.128 218.78 55.613 214.587 56.933 208.296 56.933L204.491 56.933C197.97 56.934 193.621 55.459 190.825 52.818zM237.28 2.959L242.762 2.959C243.2 2.959 243.555 3.315 243.553 3.753L243.553 26.257 248.06 26.257C248.836 26.257 249.225 26.024 249.768 25.17L264.754 3.303C264.902 3.088 265.146 2.959 265.407 2.959L271.016 2.959C271.654 2.959 272.03 3.675 271.667 4.2L254.894 28.51 273.666 55.222C274.035 55.746 273.659 56.468 273.018 56.468L266.875 56.468C266.618 56.468 266.376 56.343 266.228 56.133L249.38 32.238 243.555 32.238 243.555 55.677C243.555 56.114 243.201 56.468 242.764 56.468L237.28 56.468C236.843 56.468 236.489 56.114 236.489 55.677L236.489 3.75C236.488 3.313 236.843 2.959 237.28 2.959zM295.245 3.75C295.245 3.313 295.599 2.959 296.036 2.959L315.67 2.959C321.728 2.959 326.465 3.891 329.493 6.92 332.134 9.638 334.93 14.609 334.93 29.753 334.93 44.896 332.134 49.789 329.493 52.507 326.465 55.536 321.805 56.468 315.67 56.468L296.036 56.468C295.599 56.468 295.245 56.114 295.245 55.677L295.245 3.75zM315.127 50.876C319.321 50.876 322.194 50.022 324.058 48.158 327.164 44.973 327.397 38.838 327.397 29.675 327.397 20.511 327.086 14.531 324.058 11.346 322.272 9.405 319.398 8.551 315.049 8.551L302.312 8.551 302.312 50.876 315.127 50.876 315.127 50.876zM365.759 40.47L348.363 40.47C348.441 44.896 348.829 48.081 350.616 49.789 351.703 50.954 353.411 51.576 355.896 51.576L359.779 51.576C362.342 51.576 364.439 51.265 366.147 50.333 366.781 49.93 367.286 49.484 367.789 48.996 368.091 48.703 368.574 48.712 368.877 49.003L371.728 51.742C372.036 52.038 372.058 52.535 371.767 52.847 370.943 53.729 370.127 54.426 369.098 55.069 366.846 56.312 364.05 56.933 359.856 56.933L355.352 56.933C351.624 56.933 348.052 56.234 345.489 53.826 343.159 51.652 341.373 48.002 341.373 37.75 341.373 27.654 343.082 24.082 345.256 21.985 347.741 19.422 351.469 18.645 355.352 18.645L359.235 18.645C363.739 18.645 366.924 19.655 369.02 21.519 371.427 23.538 372.67 26.645 372.67 31.149L372.67 33.79C372.672 37.985 371.662 40.47 365.759 40.47zM366.07 33.325L366.07 30.995C366.07 28.821 365.682 26.957 364.362 25.715 363.119 24.472 361.255 24.006 358.77 24.006L355.819 24.006C353.334 24.006 351.703 24.628 350.616 25.793 348.752 27.579 348.441 30.919 348.363 35.501L363.973 35.501C365.449 35.499 366.07 34.8 366.07 33.325zM378.915 31.616C378.915 26.723 379.924 23.85 381.633 21.986 383.419 20.044 386.37 18.646 391.574 18.646L396.234 18.646C399.185 18.646 401.437 18.879 403.223 19.889 404.311 20.433 405.243 21.209 405.941 22.219L406.096 22.219C406.795 21.287 407.727 20.51 408.737 19.966 410.601 18.957 412.853 18.646 415.571 18.646L420.076 18.646C425.357 18.646 428.23 20.044 430.017 21.986 431.803 23.85 432.813 26.723 432.813 31.616L432.813 55.676C432.813 56.113 432.459 56.467 432.022 56.467L426.926 56.467C426.489 56.467 426.135 56.113 426.135 55.676L426.135 35.111C426.135 29.908 425.98 27.811 424.97 26.102 423.805 24.316 421.631 24.005 419.378 24.005L415.573 24.005C413.399 24.005 411.38 24.549 410.293 26.102 409.206 27.733 409.206 29.442 409.206 34.412L409.206 55.676C409.206 56.113 408.852 56.467 408.415 56.467L403.319 56.467C402.882 56.467 402.528 56.113 402.528 55.676L402.528 34.49C402.528 29.209 402.45 27.578 401.596 26.18 400.586 24.55 398.722 24.006 396.237 24.006L392.354 24.006C390.024 24.006 387.928 24.317 386.763 26.103 385.675 27.812 385.598 29.908 385.598 35.112L385.598 55.678C385.598 56.115 385.244 56.469 384.807 56.469L379.711 56.469C379.274 56.469 378.92 56.115 378.92 55.678L378.92 31.616 378.915 31.616zM463.792 40.47L446.396 40.47C446.474 44.896 446.862 48.081 448.649 49.789 449.736 50.954 451.444 51.576 453.929 51.576L457.812 51.576C460.375 51.576 462.472 51.265 464.18 50.333 464.814 49.93 465.319 49.484 465.822 48.996 466.124 48.703 466.607 48.712 466.91 49.003L469.761 51.742C470.069 52.038 470.091 52.535 469.8 52.847 468.976 53.729 468.16 54.426 467.131 55.069 464.879 56.312 462.083 56.933 457.889 56.933L453.385 56.933C449.657 56.933 446.085 56.234 443.522 53.826 441.192 51.652 439.406 48.002 439.406 37.75 439.406 27.654 441.115 24.082 443.289 21.985 445.774 19.422 449.502 18.645 453.385 18.645L457.268 18.645C461.772 18.645 464.957 19.655 467.053 21.519 469.461 23.538 470.703 26.645 470.703 31.149L470.703 33.79C470.705 37.985 469.695 40.47 463.792 40.47zM464.103 33.325L464.103 30.995C464.103 28.821 463.715 26.957 462.395 25.715 461.152 24.472 459.288 24.006 456.803 24.006L453.852 24.006C451.367 24.006 449.736 24.628 448.649 25.793 446.785 27.579 446.474 30.919 446.396 35.501L462.006 35.501C463.482 35.499 464.103 34.8 464.103 33.325zM477.225 31.616C477.225 26.723 478.234 23.85 479.943 21.986 481.729 20.044 484.68 18.646 489.884 18.646L495.242 18.646C500.523 18.646 503.397 20.044 505.183 21.986 506.969 23.85 507.979 26.723 507.979 31.616L507.979 55.676C507.979 56.113 507.625 56.467 507.188 56.467L502.092 56.467C501.655 56.467 501.301 56.113 501.301 55.676L501.301 35.111C501.301 29.908 501.146 27.811 500.136 26.102 498.97 24.316 496.796 24.005 494.544 24.005L490.661 24.005C488.254 24.005 486.235 24.316 485.07 26.102 483.982 27.811 483.905 29.907 483.905 35.111L483.905 55.677C483.905 56.114 483.551 56.468 483.114 56.468L478.018 56.468C477.581 56.468 477.227 56.114 477.227 55.677L477.227 31.616 477.225 31.616zM535.856 51.901L535.856 55.677C535.856 56.114 535.502 56.468 535.065 56.468L530.886 56.468C525.76 56.468 523.197 55.148 521.334 53.284 519.548 51.42 518.538 48.468 518.538 43.653L518.538 24.627 513.66 24.627C513.223 24.627 512.869 24.273 512.869 23.836L512.869 20.06C512.869 19.623 513.223 19.269 513.66 19.269L518.538 19.269 518.538 6.857C518.538 6.42 518.892 6.066 519.329 6.066L524.425 6.066C524.862 6.066 525.216 6.42 525.216 6.857L525.216 19.268 532.812 19.268C533.249 19.268 533.603 19.622 533.603 20.059L533.603 23.835C533.603 24.272 533.249 24.626 532.812 24.626L525.216 24.626 525.216 40.003C525.216 45.75 525.448 47.536 526.459 48.934 527.468 50.487 529.332 51.108 531.662 51.108L535.064 51.108C535.502 51.109 535.856 51.463 535.856 51.901zM540.826 6.764C540.826 4.279 542.457 2.415 545.098 2.415 547.739 2.415 549.447 4.279 549.447 6.764 549.447 9.171 547.661 11.036 545.098 11.036 542.535 11.036 540.826 9.172 540.826 6.764zM542.55 19.268L547.646 19.268C548.083 19.268 548.437 19.622 548.437 20.059L548.437 55.676C548.437 56.113 548.083 56.467 547.646 56.467L542.55 56.467C542.113 56.467 541.759 56.113 541.759 55.676L541.759 20.059C541.758 19.622 542.113 19.268 542.55 19.268zM586.098 31.616L586.098 43.653C586.098 48.779 585.554 52.196 583.535 54.293 581.749 56.157 578.719 56.934 573.749 56.934L568.469 56.934C564.43 56.934 561.169 56.002 558.994 53.983 556.82 52.119 555.655 49.401 555.655 45.518 555.655 41.635 556.898 38.917 558.839 37.131 562.334 34.024 566.683 33.248 574.139 33.248L579.42 33.248 579.42 32.239C579.42 28.744 579.109 26.492 577.633 25.171 576.701 24.317 575.148 23.928 572.896 23.928L569.557 23.928C566.14 23.928 563.767 24.45 561.72 26.332 561.403 26.624 560.9 26.575 560.615 26.252L558.074 23.38C557.803 23.074 557.798 22.598 558.084 22.306 560.723 19.608 564.582 18.646 569.402 18.646L573.441 18.646C578.411 18.646 581.517 19.966 583.382 21.986 585.088 23.85 586.098 26.568 586.098 31.616zM579.419 44.974L579.419 38.218 573.827 38.218C569.323 38.218 565.828 38.684 563.886 40.781 563.032 41.79 562.488 43.266 562.488 45.285 562.488 47.304 563.11 48.857 564.274 49.867 565.517 51.11 566.992 51.654 569.866 51.654L573.05 51.654C575.691 51.654 577.322 51.188 578.253 50.023 579.108 48.935 579.419 47.226 579.419 44.974zM216.232 125.202L205.502 104.275 193.697 104.275 193.697 124.841C193.697 125.278 193.343 125.632 192.906 125.632L187.422 125.632C186.985 125.632 186.631 125.278 186.631 124.841L186.631 72.915C186.631 72.478 186.985 72.124 187.422 72.124L206.279 72.124C211.405 72.124 214.899 73.133 217.385 75.153 220.725 77.871 221.89 82.375 221.89 87.889 221.89 94.879 220.414 98.995 217.152 101.325 215.909 102.257 214.434 102.955 212.726 103.344L223.625 124.479C223.897 125.006 223.514 125.633 222.922 125.633L216.938 125.633C216.64 125.632 216.368 125.466 216.232 125.202zM204.648 98.684C208.687 98.684 211.172 98.062 212.647 96.587 214.2 95.112 214.588 92.782 214.588 89.054L214.588 86.957C214.588 82.918 213.734 80.511 211.793 79.191 210.084 78.104 207.599 77.716 204.26 77.716L193.698 77.716 193.698 98.685 204.648 98.685 204.648 98.684zM252.261 109.634L234.865 109.634C234.942 114.06 235.331 117.245 237.117 118.953 238.204 120.118 239.912 120.74 242.397 120.74L246.28 120.74C248.843 120.74 250.94 120.429 252.648 119.497 253.281 119.094 253.786 118.648 254.29 118.16 254.592 117.867 255.075 117.876 255.378 118.167L258.229 120.906C258.537 121.202 258.559 121.699 258.268 122.011 257.444 122.893 256.628 123.59 255.599 124.233 253.347 125.476 250.551 126.097 246.357 126.097L241.853 126.097C238.125 126.097 234.553 125.398 231.99 122.99 229.66 120.816 227.874 117.166 227.874 106.914 227.874 96.818 229.583 93.246 231.757 91.149 234.242 88.586 237.97 87.809 241.853 87.809L245.736 87.809C250.24 87.809 253.425 88.819 255.521 90.683 257.928 92.702 259.171 95.809 259.171 100.313L259.171 102.954C259.172 107.149 258.163 109.634 252.261 109.634zM252.571 102.49L252.571 100.16C252.571 97.986 252.183 96.122 250.863 94.88 249.62 93.637 247.756 93.171 245.271 93.171L242.32 93.171C239.835 93.171 238.204 93.793 237.117 94.958 235.253 96.744 234.942 100.084 234.865 104.666L250.475 104.666C251.95 104.664 252.571 103.965 252.571 102.49zM264.174 120.109L267.22 117.176C267.566 116.843 268.112 116.903 268.407 117.281 270.396 119.826 272.792 120.74 276.494 120.74L279.523 120.74C282.008 120.74 283.794 120.507 284.881 119.575 286.124 118.566 286.201 116.857 286.201 115.381 286.201 113.284 286.046 112.275 285.347 111.343 284.881 110.644 284.182 110.1 282.551 109.79L272.377 107.926C270.125 107.538 268.261 106.606 267.174 105.285 265.931 103.81 265.465 101.713 265.465 98.994L265.465 97.286C265.465 94.956 266.086 92.937 267.406 91.384 269.27 89.054 272.687 87.811 277.502 87.811L280.687 87.811C285.718 87.811 289.039 88.975 291.418 91.754 291.683 92.063 291.65 92.536 291.362 92.824L288.286 95.9C287.958 96.228 287.434 96.191 287.121 95.849 285.366 93.93 283.258 93.17 280.454 93.17L278.046 93.17C275.328 93.17 273.697 93.481 272.687 94.568 272.066 95.189 271.6 95.966 271.6 98.063 271.6 99.383 271.833 100.393 272.376 101.17 272.92 101.869 273.774 102.413 275.172 102.645L285.346 104.665C286.977 104.976 288.374 105.441 289.462 106.296 291.947 108.082 292.568 110.878 292.568 114.062L292.568 116.315C292.568 119.266 291.714 121.751 289.617 123.537 287.676 125.167 284.57 126.1 279.987 126.1L276.104 126.1C270.016 126.1 266.98 125.106 264.078 121.15 263.847 120.832 263.891 120.382 264.174 120.109zM322.321 109.634L304.925 109.634C305.002 114.06 305.391 117.245 307.177 118.953 308.264 120.118 309.972 120.74 312.457 120.74L316.34 120.74C318.903 120.74 321 120.429 322.708 119.497 323.341 119.094 323.846 118.648 324.35 118.16 324.652 117.867 325.135 117.876 325.438 118.167L328.289 120.906C328.597 121.202 328.619 121.699 328.328 122.011 327.504 122.893 326.688 123.59 325.659 124.233 323.407 125.476 320.611 126.097 316.417 126.097L311.913 126.097C308.185 126.097 304.613 125.398 302.05 122.99 299.72 120.816 297.934 117.166 297.934 106.914 297.934 96.818 299.643 93.246 301.817 91.149 304.302 88.586 308.03 87.809 311.913 87.809L315.796 87.809C320.3 87.809 323.485 88.819 325.581 90.683 327.988 92.702 329.231 95.809 329.231 100.313L329.231 102.954C329.233 107.149 328.223 109.634 322.321 109.634zM322.631 102.49L322.631 100.16C322.631 97.986 322.243 96.122 320.923 94.88 319.68 93.637 317.816 93.171 315.331 93.171L312.38 93.171C309.895 93.171 308.264 93.793 307.177 94.958 305.313 96.744 305.002 100.084 304.925 104.666L320.535 104.666C322.011 104.664 322.631 103.965 322.631 102.49zM364.263 100.781L364.263 112.818C364.263 117.944 363.719 121.361 361.7 123.458 359.914 125.322 356.884 126.099 351.914 126.099L346.634 126.099C342.595 126.099 339.334 125.167 337.159 123.148 334.985 121.284 333.82 118.566 333.82 114.683 333.82 110.8 335.063 108.082 337.004 106.296 340.499 103.189 344.848 102.413 352.304 102.413L357.585 102.413 357.585 101.404C357.585 97.909 357.274 95.657 355.798 94.336 354.866 93.482 353.313 93.093 351.061 93.093L347.722 93.093C344.305 93.093 341.932 93.615 339.885 95.497 339.568 95.789 339.065 95.74 338.78 95.417L336.239 92.545C335.968 92.239 335.963 91.763 336.248 91.471 338.887 88.773 342.746 87.811 347.566 87.811L351.605 87.811C356.575 87.811 359.681 89.131 361.546 91.151 363.252 93.014 364.263 95.733 364.263 100.781zM357.583 114.138L357.583 107.382 351.991 107.382C347.487 107.382 343.992 107.848 342.05 109.945 341.196 110.954 340.652 112.43 340.652 114.449 340.652 116.468 341.274 118.021 342.438 119.031 343.681 120.274 345.156 120.818 348.03 120.818L351.214 120.818C353.855 120.818 355.486 120.352 356.417 119.187 357.273 118.099 357.583 116.39 357.583 114.138zM372.121 100.781C372.121 95.811 373.208 92.782 375.149 90.918 376.936 89.054 379.576 87.811 384.469 87.811L388.881 87.811C389.318 87.811 389.672 88.165 389.672 88.602L389.672 92.378C389.672 92.815 389.318 93.169 388.881 93.169L385.168 93.169C382.838 93.169 380.975 93.791 379.888 95.343 378.956 96.819 378.8 98.605 378.8 104.352L378.8 124.84C378.8 125.277 378.446 125.631 378.009 125.631L372.913 125.631C372.476 125.631 372.122 125.277 372.122 124.84L372.122 100.781 372.121 100.781zM396.267 122.914C394.015 120.817 392.306 117.245 392.228 107.382L392.228 106.605C392.228 96.975 393.937 93.558 395.878 91.384 398.441 88.666 402.169 87.811 406.207 87.811L409.702 87.811C412.653 87.811 415.604 88.2 417.546 88.977 418.834 89.519 420.003 90.357 421.054 91.594 421.319 91.905 421.284 92.38 420.992 92.666L417.919 95.682C417.602 95.993 417.088 95.978 416.787 95.652 416.207 95.023 415.64 94.618 414.982 94.258 413.584 93.482 411.72 93.171 409.39 93.171L406.672 93.171C403.877 93.171 401.702 93.793 400.537 96.278 399.605 98.297 399.217 101.714 399.217 106.917 399.217 112.198 399.606 115.771 400.537 117.712 401.702 120.042 403.722 120.741 406.672 120.741L409.157 120.741C411.41 120.741 413.662 120.508 415.371 119.498 416.025 119.141 416.634 118.738 417.197 118.151 417.495 117.84 417.995 117.846 418.303 118.147L421.116 120.905C421.42 121.203 421.438 121.697 421.147 122.008 420.226 122.992 419.279 123.802 418.166 124.391 415.992 125.556 412.963 126.1 409.235 126.1L406.207 126.1C402.403 126.099 398.753 125.322 396.267 122.914zM429.059 68.862L434.155 68.862C434.592 68.862 434.946 69.216 434.946 69.653L434.946 89.908 435.023 89.908C436.965 88.355 439.683 87.811 442.634 87.811L446.284 87.811C451.565 87.811 454.439 89.209 456.225 91.151 458.012 93.015 459.021 95.888 459.021 100.781L459.021 124.841C459.021 125.278 458.667 125.632 458.23 125.632L453.134 125.632C452.697 125.632 452.343 125.278 452.343 124.841L452.343 104.275C452.343 99.227 452.265 96.897 451.178 95.266 450.012 93.402 447.76 93.169 445.586 93.169L441.392 93.169C439.218 93.169 437.199 93.713 436.112 95.266 435.102 96.742 434.947 98.994 434.947 104.275L434.947 124.841C434.947 125.278 434.593 125.632 434.156 125.632L429.06 125.632C428.623 125.632 428.269 125.278 428.269 124.841L428.269 69.653C428.267 69.216 428.622 68.862 429.059 68.862zM502.806 120.832L502.806 124.841C502.806 125.278 502.452 125.632 502.015 125.632L482.707 125.632C482.27 125.632 481.916 125.278 481.916 124.841L481.916 120.832C481.916 120.395 482.27 120.041 482.707 120.041L488.906 120.041 488.906 77.715 482.707 77.715C482.27 77.715 481.916 77.361 481.916 76.924L481.916 72.915C481.916 72.478 482.27 72.124 482.707 72.124L501.86 72.124C502.297 72.124 502.651 72.478 502.651 72.915L502.651 76.924C502.651 77.361 502.297 77.715 501.86 77.715L495.973 77.715 495.973 120.04 502.016 120.04C502.452 120.04 502.806 120.395 502.806 120.832zM509.682 100.781C509.682 95.888 510.691 93.015 512.4 91.151 514.186 89.209 517.137 87.811 522.341 87.811L527.699 87.811C532.98 87.811 535.854 89.209 537.64 91.151 539.426 93.015 540.436 95.888 540.436 100.781L540.436 124.841C540.436 125.278 540.082 125.632 539.645 125.632L534.549 125.632C534.112 125.632 533.758 125.278 533.758 124.841L533.758 104.275C533.758 99.072 533.603 96.975 532.593 95.266 531.427 93.48 529.253 93.169 527.001 93.169L523.118 93.169C520.711 93.169 518.692 93.48 517.527 95.266 516.439 96.975 516.362 99.071 516.362 104.275L516.362 124.841C516.362 125.278 516.008 125.632 515.571 125.632L510.475 125.632C510.038 125.632 509.684 125.278 509.684 124.841L509.684 100.781 509.682 100.781zM546.292 120.109L549.338 117.176C549.684 116.843 550.23 116.903 550.525 117.281 552.514 119.826 554.91 120.74 558.612 120.74L561.641 120.74C564.126 120.74 565.912 120.507 566.999 119.575 568.242 118.566 568.319 116.857 568.319 115.381 568.319 113.284 568.164 112.275 567.465 111.343 566.999 110.644 566.3 110.1 564.669 109.79L554.495 107.926C552.243 107.538 550.379 106.606 549.292 105.285 548.049 103.81 547.583 101.713 547.583 98.994L547.583 97.286C547.583 94.956 548.204 92.937 549.524 91.384 551.388 89.054 554.805 87.811 559.62 87.811L562.805 87.811C567.836 87.811 571.157 88.975 573.536 91.754 573.801 92.063 573.768 92.536 573.48 92.824L570.404 95.9C570.076 96.228 569.552 96.191 569.239 95.849 567.484 93.93 565.376 93.17 562.572 93.17L560.165 93.17C557.447 93.17 555.816 93.481 554.806 94.568 554.185 95.189 553.719 95.966 553.719 98.063 553.719 99.383 553.952 100.393 554.495 101.17 555.039 101.869 555.893 102.413 557.291 102.645L567.465 104.665C569.096 104.976 570.493 105.441 571.581 106.296 574.066 108.082 574.687 110.878 574.687 114.062L574.687 116.315C574.687 119.266 573.833 121.751 571.736 123.537 569.795 125.167 566.689 126.1 562.106 126.1L558.223 126.1C552.135 126.1 549.099 125.106 546.197 121.15 545.965 120.832 546.009 120.382 546.292 120.109zM602.185 121.065L602.185 124.841C602.185 125.278 601.831 125.632 601.394 125.632L597.215 125.632C592.089 125.632 589.526 124.312 587.663 122.448 585.877 120.584 584.867 117.632 584.867 112.817L584.867 93.791 579.989 93.791C579.552 93.791 579.198 93.437 579.198 93L579.198 89.224C579.198 88.787 579.552 88.433 579.989 88.433L584.867 88.433 584.867 76.022C584.867 75.585 585.221 75.231 585.658 75.231L590.754 75.231C591.191 75.231 591.545 75.585 591.545 76.022L591.545 88.433 599.141 88.433C599.578 88.433 599.932 88.787 599.932 89.224L599.932 93C599.932 93.437 599.578 93.791 599.141 93.791L591.545 93.791 591.545 109.168C591.545 114.915 591.778 116.701 592.788 118.099 593.797 119.652 595.661 120.273 597.991 120.273L601.394 120.273C601.831 120.274 602.185 120.628 602.185 121.065zM607.114 75.929C607.114 73.444 608.745 71.58 611.386 71.58 614.027 71.58 615.735 73.444 615.735 75.929 615.735 78.336 613.949 80.201 611.386 80.201 608.823 80.201 607.114 78.336 607.114 75.929zM608.838 88.433L613.934 88.433C614.371 88.433 614.725 88.787 614.725 89.224L614.725 124.841C614.725 125.278 614.371 125.632 613.934 125.632L608.838 125.632C608.401 125.632 608.047 125.278 608.047 124.841L608.047 89.224C608.047 88.787 608.401 88.433 608.838 88.433zM644.319 121.065L644.319 124.841C644.319 125.278 643.965 125.632 643.528 125.632L639.349 125.632C634.223 125.632 631.66 124.312 629.797 122.448 628.01 120.584 627.001 117.632 627.001 112.817L627.001 93.791 622.123 93.791C621.686 93.791 621.332 93.437 621.332 93L621.332 89.224C621.332 88.787 621.686 88.433 622.123 88.433L627 88.433 627 76.022C627 75.585 627.354 75.231 627.791 75.231L632.887 75.231C633.324 75.231 633.678 75.585 633.678 76.022L633.678 88.433 641.274 88.433C641.711 88.433 642.065 88.787 642.065 89.224L642.065 93C642.065 93.437 641.711 93.791 641.274 93.791L633.678 93.791 633.678 109.168C633.678 114.915 633.911 116.701 634.921 118.099 635.93 119.652 637.794 120.273 640.124 120.273L643.527 120.273C643.964 120.274 644.319 120.628 644.319 121.065zM651.901 122.759C650.192 120.895 649.183 118.022 649.183 113.129L649.183 89.224C649.183 88.787 649.537 88.433 649.974 88.433L655.07 88.433C655.507 88.433 655.861 88.787 655.861 89.224L655.861 109.634C655.861 114.682 655.938 117.012 657.026 118.643 658.191 120.507 660.365 120.74 662.617 120.74L666.034 120.74C668.287 120.74 670.461 120.507 671.626 118.643 672.635 117.012 672.713 114.682 672.713 109.634L672.713 89.224C672.713 88.787 673.067 88.433 673.504 88.433L678.6 88.433C679.037 88.433 679.391 88.787 679.391 89.224L679.391 113.129C679.391 118.022 678.459 120.895 676.673 122.759 674.887 124.701 671.936 126.099 666.732 126.099L661.839 126.099C656.638 126.099 653.686 124.701 651.901 122.759zM708.442 121.065L708.442 124.841C708.442 125.278 708.088 125.632 707.651 125.632L703.472 125.632C698.346 125.632 695.783 124.312 693.92 122.448 692.134 120.584 691.124 117.632 691.124 112.817L691.124 93.791 686.246 93.791C685.809 93.791 685.455 93.437 685.455 93L685.455 89.224C685.455 88.787 685.809 88.433 686.246 88.433L691.124 88.433 691.124 76.022C691.124 75.585 691.478 75.231 691.915 75.231L697.011 75.231C697.448 75.231 697.802 75.585 697.802 76.022L697.802 88.433 705.398 88.433C705.835 88.433 706.189 88.787 706.189 89.224L706.189 93C706.189 93.437 705.835 93.791 705.398 93.791L697.802 93.791 697.802 109.168C697.802 114.915 698.034 116.701 699.045 118.099 700.054 119.652 701.918 120.273 704.248 120.273L707.65 120.273C708.088 120.274 708.442 120.628 708.442 121.065zM736.403 109.634L719.007 109.634C719.084 114.06 719.473 117.245 721.259 118.953 722.346 120.118 724.054 120.74 726.54 120.74L730.423 120.74C732.986 120.74 735.083 120.429 736.791 119.497 737.424 119.094 737.929 118.648 738.433 118.16 738.735 117.867 739.218 117.876 739.521 118.167L742.372 120.906C742.68 121.202 742.702 121.699 742.411 122.011 741.587 122.893 740.771 123.59 739.742 124.233 737.49 125.476 734.694 126.097 730.5 126.097L725.996 126.097C722.268 126.097 718.696 125.398 716.133 122.99 713.803 120.816 712.017 117.166 712.017 106.914 712.017 96.818 713.726 93.246 715.9 91.149 718.385 88.586 722.113 87.809 725.996 87.809L729.879 87.809C734.383 87.809 737.568 88.819 739.664 90.683 742.071 92.702 743.314 95.809 743.314 100.313L743.314 102.954C743.315 107.149 742.306 109.634 736.403 109.634zM736.714 102.49L736.714 100.16C736.714 97.986 736.326 96.122 735.006 94.88 733.763 93.637 731.899 93.171 729.414 93.171L726.463 93.171C723.978 93.171 722.347 93.793 721.26 94.958 719.396 96.744 719.085 100.084 719.008 104.666L734.618 104.666C736.093 104.664 736.714 103.965 736.714 102.49zM146.276 61.969L111.794 2.245C111.031.923 109.432 0 107.906 0L38.943 0C37.417 0 35.818.923 35.054 2.245L.572 61.969C-.191 63.291-.191 65.137.572 66.459L35.053 126.183C35.816 127.505 37.415 128.428 38.942 128.428L107.905 128.428C109.431 128.428 111.03 127.505 111.793 126.183L146.273 66.461C147.04 65.138 147.04 63.29 146.276 61.969zM40.754 120.8L40.754 67.006 71.812 67.006 87.341 93.903 40.754 120.8zM90.133 98.739L104.05 122.844 48.382 122.844 90.133 98.739zM40.754 7.628L87.341 34.525 71.812 61.422 40.754 61.422 40.754 7.628zM48.382 5.584L104.05 5.584 90.133 29.689 48.382 5.584zM76.648 64.214L92.177 37.317 138.764 64.214 92.177 91.111 76.648 64.214zM136.719 56.586L94.969 32.481 108.886 8.376 136.719 56.586zM35.17 13.212L35.17 61.422 7.336 61.422 35.17 13.212zM7.336 67.006L35.17 67.006 35.17 115.216 7.336 67.006zM108.886 120.052L94.969 95.947 136.72 71.842 108.886 120.052z"/>
  </g>
</svg>
