<svg height="129" viewBox="0 0 744 129" width="744" xmlns="http://www.w3.org/2000/svg"><g fill="none"><path d="m225.972 3.468h-5.484c-.437 0-.791.354-.791.791v33.147c0 4.815-.311 8.387-2.174 10.717-1.631 2.097-4.427 3.262-9.242 3.262h-2.641c-4.815 0-7.611-1.165-9.319-3.339-1.786-2.252-2.097-5.902-2.097-10.639v-33.148c0-.437-.354-.791-.791-.791h-5.484c-.437 0-.791.354-.791.791v35.166c0 5.98 1.01 10.718 4.194 13.902 2.796 2.641 7.145 4.116 13.668 4.116h3.805c6.291 0 10.484-1.32 13.28-3.805 3.495-3.107 4.659-7.999 4.659-14.212v-35.167c-.001-.437-.355-.791-.792-.791zm11.832 53.509h5.484c.437 0 .791-.354.791-.791v-23.439h5.825l16.849 23.895c.148.21.389.335.647.335h6.143c.641 0 1.016-.722.647-1.246l-18.772-26.712 16.773-24.31c.362-.525-.014-1.241-.651-1.241h-5.609c-.261 0-.505.129-.653.344l-14.986 21.867c-.543.854-.932 1.087-1.708 1.087h-4.507v-22.504c.001-.438-.353-.794-.791-.794h-5.482c-.437 0-.791.354-.791.791v51.926c0 .437.354.792.791.792zm92.214-49.548c-3.028-3.029-7.766-3.961-13.823-3.961h-19.634c-.437 0-.791.354-.791.791v51.926c0 .437.354.791.791.791h19.634c6.135 0 10.795-.932 13.823-3.961 2.641-2.718 5.437-7.611 5.437-22.754 0-15.144-2.796-20.114-5.437-22.832zm-5.436 41.238c-1.864 1.864-4.737 2.718-8.931 2.718h-12.814v-42.325h12.737c4.349 0 7.222.854 9.009 2.795 3.028 3.185 3.339 9.164 3.339 18.329 0 9.163-.233 15.299-3.34 18.483zm44.821.845c-.303-.291-.787-.3-1.088-.007-.503.488-1.009.934-1.642 1.337-1.708.932-3.805 1.243-6.368 1.243h-3.883c-2.485 0-4.193-.622-5.281-1.786-1.786-1.708-2.175-4.893-2.253-9.319h17.396c5.903 0 6.912-2.485 6.912-6.679v-2.641c0-4.504-1.243-7.611-3.65-9.63-2.097-1.864-5.281-2.874-9.785-2.874h-3.883c-3.883 0-7.611.777-10.096 3.34-2.174 2.097-3.883 5.669-3.883 15.765 0 10.252 1.786 13.902 4.116 16.076 2.563 2.407 6.135 3.107 9.863 3.107h4.504c4.194 0 6.99-.622 9.242-1.864 1.029-.643 1.845-1.34 2.669-2.222.292-.313.27-.809-.039-1.105zm-18.262-23.211c1.087-1.165 2.718-1.786 5.203-1.786h2.951c2.485 0 4.349.466 5.592 1.709 1.32 1.243 1.708 3.106 1.708 5.281v2.33c0 1.475-.621 2.174-2.097 2.174h-15.61c.078-4.583.388-7.923 2.253-9.708zm82.197 29.884v-24.06c0-4.893-1.01-7.766-2.796-9.63-1.786-1.942-4.659-3.34-9.941-3.34h-4.505c-2.718 0-4.97.311-6.834 1.32-1.009.544-1.941 1.32-2.641 2.253h-.155c-.699-1.01-1.63-1.786-2.718-2.33-1.786-1.009-4.038-1.243-6.989-1.243h-4.66c-5.203 0-8.155 1.398-9.941 3.34-1.709 1.864-2.718 4.737-2.718 9.63v24.06c0 .437.354.791.791.791h5.096c.437 0 .791-.354.791-.791v-20.565c0-5.203.077-7.3 1.165-9.009 1.165-1.786 3.262-2.097 5.591-2.097h3.883c2.485 0 4.349.544 5.359 2.174.854 1.398.932 3.029.932 8.31v21.187c0 .437.354.791.791.791h5.096c.437 0 .791-.354.791-.791v-21.264c0-4.97 0-6.679 1.087-8.31 1.087-1.553 3.106-2.097 5.281-2.097h3.805c2.253 0 4.427.311 5.592 2.097 1.009 1.709 1.165 3.805 1.165 9.009v20.566c0 .437.354.791.791.791h5.096c.44 0 .795-.355.795-.792zm34.241-34.156c-2.097-1.864-5.281-2.874-9.785-2.874h-3.883c-3.883 0-7.611.777-10.096 3.34-2.174 2.097-3.883 5.669-3.883 15.765 0 10.252 1.786 13.902 4.116 16.076 2.563 2.407 6.135 3.107 9.863 3.107h4.504c4.194 0 6.99-.622 9.242-1.864 1.029-.643 1.845-1.34 2.669-2.222.292-.313.27-.809-.039-1.105l-2.851-2.739c-.303-.291-.787-.3-1.088-.007-.503.488-1.009.934-1.642 1.337-1.708.932-3.805 1.243-6.368 1.243h-3.883c-2.485 0-4.193-.622-5.281-1.786-1.786-1.708-2.175-4.893-2.253-9.319h17.396c5.903 0 6.912-2.485 6.912-6.679v-2.641c0-4.506-1.242-7.613-3.65-9.632zm-2.951 11.805c0 1.475-.621 2.174-2.097 2.174h-15.61c.078-4.582.389-7.922 2.253-9.708 1.087-1.165 2.718-1.786 5.203-1.786h2.951c2.485 0 4.349.466 5.592 1.709 1.32 1.243 1.708 3.106 1.708 5.281zm31.139-14.679h-5.358c-5.203 0-8.155 1.398-9.941 3.34-1.709 1.864-2.718 4.737-2.718 9.63v24.06c0 .437.354.791.791.791h5.096c.437 0 .791-.354.791-.791v-20.565c0-5.203.077-7.3 1.165-9.009 1.165-1.786 3.184-2.097 5.591-2.097h3.883c2.252 0 4.426.311 5.592 2.097 1.009 1.709 1.165 3.805 1.165 9.009v20.566c0 .437.354.791.791.791h5.096c.437 0 .791-.354.791-.791v-24.06c0-4.893-1.009-7.766-2.796-9.63-1.784-1.943-4.658-3.341-9.939-3.341zm18.418 5.981h4.878v19.027c0 4.815 1.01 7.766 2.796 9.631 1.864 1.864 4.426 3.184 9.552 3.184h4.179c.437 0 .791-.354.791-.791v-3.776c0-.437-.354-.791-.791-.791h-3.402c-2.33 0-4.194-.621-5.203-2.174-1.01-1.398-1.243-3.184-1.243-8.931v-15.379h7.596c.437 0 .791-.354.791-.791v-3.776c0-.437-.354-.791-.791-.791h-7.596v-12.412c0-.437-.354-.791-.791-.791h-5.096c-.437 0-.791.354-.791.791v12.411h-4.878c-.437 0-.791.354-.791.791v3.776c-.002.437.353.792.79.792zm31.437-13.591c2.563 0 4.349-1.864 4.349-4.272 0-2.485-1.708-4.349-4.349-4.349s-4.272 1.864-4.272 4.349c.001 2.408 1.709 4.272 4.272 4.272zm3.339 44.64v-35.617c0-.437-.354-.791-.791-.791h-5.096c-.437 0-.791.354-.791.791v35.617c0 .437.354.791.791.791h5.096c.437.001.791-.354.791-.791zm25.701-22.429c-7.456 0-11.804.776-15.3 3.883-1.941 1.786-3.184 4.504-3.184 8.387s1.165 6.602 3.339 8.465c2.175 2.019 5.437 2.951 9.475 2.951h5.28c4.97 0 8-.777 9.786-2.641 2.019-2.097 2.563-5.514 2.563-10.64v-12.036c0-5.048-1.01-7.766-2.718-9.63-1.864-2.02-4.97-3.34-9.941-3.34h-4.039c-4.82 0-8.679.962-11.318 3.66-.286.292-.28.768-.01 1.074l2.541 2.872c.286.323.788.371 1.105.08 2.047-1.882 4.42-2.404 7.837-2.404h3.339c2.252 0 3.805.389 4.737 1.243 1.476 1.32 1.787 3.572 1.787 7.068v1.009h-5.279zm5.281 11.727c0 2.252-.311 3.961-1.165 5.048-.932 1.165-2.563 1.631-5.203 1.631h-3.184c-2.874 0-4.349-.544-5.592-1.786-1.165-1.009-1.786-2.563-1.786-4.582s.544-3.495 1.398-4.504c1.942-2.097 5.437-2.563 9.941-2.563h5.592v6.756zm-366.693 58.369c1.709-.388 3.184-1.087 4.426-2.019 3.262-2.33 4.738-6.446 4.738-13.436 0-5.514-1.165-10.018-4.505-12.736-2.485-2.02-5.98-3.029-11.106-3.029h-18.857c-.437 0-.791.354-.791.791v51.926c0 .437.354.791.791.791h5.484c.437 0 .791-.354.791-.791v-20.566h11.805l10.73 20.927c.135.264.407.43.704.43h5.984c.593 0 .975-.627.703-1.154zm-8.077-4.659h-10.95v-20.969h10.562c3.339 0 5.824.388 7.533 1.475 1.941 1.32 2.795 3.728 2.795 7.766v2.097c0 3.728-.388 6.058-1.941 7.533-1.475 1.476-3.961 2.098-7.999 2.098zm50.874-8c-2.097-1.864-5.281-2.874-9.785-2.874h-3.883c-3.883 0-7.611.777-10.096 3.34-2.174 2.097-3.883 5.669-3.883 15.765 0 10.252 1.786 13.902 4.116 16.076 2.563 2.407 6.135 3.107 9.863 3.107h4.504c4.194 0 6.99-.622 9.242-1.864 1.029-.643 1.845-1.34 2.669-2.222.292-.313.27-.809-.039-1.105l-2.851-2.739c-.303-.291-.786-.3-1.088-.007-.504.488-1.009.934-1.642 1.337-1.708.932-3.805 1.243-6.368 1.243h-3.883c-2.485 0-4.193-.622-5.281-1.786-1.786-1.708-2.175-4.893-2.252-9.319h17.396c5.902 0 6.912-2.485 6.912-6.679v-2.641c-.001-4.506-1.244-7.613-3.651-9.632zm-2.952 11.805c0 1.475-.621 2.174-2.097 2.174h-15.61c.077-4.582.388-7.922 2.252-9.708 1.087-1.165 2.718-1.787 5.203-1.787h2.951c2.485 0 4.349.466 5.592 1.709 1.32 1.243 1.708 3.106 1.708 5.28v2.332zm36.894 3.806c-1.088-.855-2.485-1.32-4.116-1.631l-10.174-2.02c-1.398-.232-2.252-.776-2.796-1.475-.543-.777-.776-1.787-.776-3.107 0-2.097.466-2.874 1.087-3.495 1.01-1.087 2.641-1.398 5.359-1.398h2.407c2.804 0 4.912.759 6.667 2.679.313.342.837.379 1.165.051l3.076-3.076c.288-.288.321-.761.056-1.07-2.38-2.779-5.7-3.943-10.731-3.943h-3.185c-4.815 0-8.232 1.243-10.096 3.573-1.32 1.553-1.941 3.572-1.941 5.902v1.708c0 2.718.466 4.816 1.709 6.291 1.087 1.32 2.951 2.253 5.203 2.641l10.174 1.864c1.631.31 2.33.854 2.796 1.553.699.932.854 1.941.854 4.038 0 1.476-.078 3.185-1.32 4.194-1.087.932-2.873 1.165-5.358 1.165h-3.029c-3.702 0-6.099-.914-8.087-3.459-.295-.378-.841-.438-1.187-.105l-3.046 2.933c-.283.273-.327.723-.094 1.04 2.902 3.956 5.938 4.95 12.026 4.95h3.883c4.583 0 7.689-.932 9.63-2.563 2.097-1.787 2.951-4.272 2.951-7.222v-2.253c-.001-3.183-.622-5.979-3.107-7.765zm36.119-15.611c-2.097-1.864-5.281-2.874-9.785-2.874h-3.883c-3.883 0-7.611.777-10.096 3.34-2.174 2.097-3.883 5.669-3.883 15.765 0 10.252 1.786 13.902 4.116 16.076 2.563 2.407 6.135 3.107 9.863 3.107h4.504c4.194 0 6.99-.622 9.242-1.864 1.029-.643 1.845-1.34 2.669-2.222.292-.313.27-.809-.039-1.105l-2.851-2.739c-.303-.291-.786-.3-1.088-.007-.504.488-1.009.934-1.642 1.337-1.708.932-3.805 1.243-6.368 1.243h-3.883c-2.485 0-4.193-.622-5.28-1.786-1.787-1.708-2.175-4.893-2.252-9.319h17.396c5.902 0 6.912-2.485 6.912-6.679v-2.641c-.002-4.506-1.245-7.613-3.652-9.632zm-2.952 11.805c0 1.475-.621 2.174-2.097 2.174h-15.61c.077-4.582.388-7.922 2.252-9.708 1.087-1.165 2.718-1.787 5.203-1.787h2.951c2.485 0 4.349.466 5.592 1.709 1.32 1.243 1.708 3.106 1.708 5.28v2.332zm28.972-14.678h-4.039c-4.82 0-8.679.962-11.318 3.66-.286.292-.28.768-.01 1.074l2.541 2.872c.286.323.788.371 1.105.08 2.047-1.882 4.42-2.404 7.837-2.404h3.339c2.252 0 3.805.389 4.737 1.243 1.476 1.32 1.786 3.572 1.786 7.068v1.009h-5.281c-7.456 0-11.804.776-15.3 3.883-1.941 1.786-3.184 4.504-3.184 8.387s1.165 6.601 3.339 8.465c2.175 2.019 5.437 2.951 9.475 2.951h5.28c4.97 0 7.999-.777 9.786-2.641 2.019-2.097 2.563-5.514 2.563-10.64v-12.037c0-5.048-1.01-7.766-2.718-9.63-1.861-2.02-4.967-3.34-9.938-3.34zm5.98 26.327c0 2.252-.311 3.961-1.165 5.048-.932 1.165-2.563 1.631-5.203 1.631h-3.184c-2.874 0-4.349-.544-5.592-1.786-1.165-1.009-1.786-2.563-1.786-4.582s.544-3.495 1.398-4.504c1.942-2.097 5.437-2.563 9.941-2.563h5.592v6.756zm31.298-26.327h-4.412c-4.893 0-7.533 1.243-9.32 3.107-1.941 1.864-3.028 4.893-3.028 9.863v24.06c0 .437.354.791.791.791h5.096c.437 0 .791-.354.791-.791v-20.488c0-5.747.155-7.533 1.088-9.009 1.087-1.553 2.951-2.174 5.281-2.174h3.713c.437 0 .791-.354.791-.791v-3.776c0-.438-.354-.792-.791-.792zm29.423 30.335c-.307-.301-.808-.307-1.106.004-.563.588-1.172.99-1.826 1.347-1.709 1.009-3.961 1.243-6.214 1.243h-2.485c-2.951 0-4.97-.699-6.135-3.029-.932-1.941-1.32-5.514-1.32-10.795 0-5.203.389-8.62 1.32-10.639 1.165-2.485 3.34-3.107 6.135-3.107h2.718c2.33 0 4.194.311 5.592 1.087.658.359 1.224.764 1.805 1.393.301.326.815.341 1.132.03l3.073-3.016c.292-.286.326-.761.062-1.072-1.051-1.237-2.221-2.075-3.508-2.617-1.942-.777-4.893-1.166-7.844-1.166h-3.495c-4.039 0-7.766.855-10.329 3.573-1.941 2.174-3.65 5.591-3.65 15.221v.777c.078 9.863 1.787 13.435 4.039 15.532 2.485 2.407 6.135 3.185 9.941 3.185h3.028c3.728 0 6.757-.544 8.931-1.709 1.113-.589 2.06-1.399 2.981-2.383.291-.311.273-.805-.031-1.103zm27.98-30.335h-3.65c-2.951 0-5.669.544-7.611 2.097h-.077v-20.255c0-.437-.354-.791-.791-.791h-5.096c-.437 0-.791.354-.791.791v55.188c0 .437.354.791.791.791h5.096c.437 0 .791-.354.791-.791v-20.566c0-5.281.155-7.533 1.165-9.009 1.087-1.553 3.106-2.097 5.28-2.097h4.194c2.174 0 4.426.233 5.592 2.097 1.087 1.631 1.165 3.961 1.165 9.009v20.566c0 .437.354.791.791.791h5.096c.437 0 .791-.354.791-.791v-24.06c0-4.893-1.01-7.766-2.796-9.63-1.785-1.942-4.659-3.34-9.94-3.34zm55.73 32.229h-6.042v-42.325h5.887c.437 0 .791-.354.791-.791v-4.009c0-.437-.354-.791-.791-.791h-19.153c-.437 0-.791.354-.791.791v4.009c0 .437.354.791.791.791h6.199v42.325h-6.199c-.437 0-.791.354-.791.791v4.009c0 .437.354.791.791.791h19.308c.437 0 .791-.354.791-.791v-4.009c.001-.436-.354-.791-.791-.791zm25.685-32.229h-5.358c-5.203 0-8.155 1.398-9.941 3.34-1.709 1.864-2.718 4.737-2.718 9.63v24.06c0 .437.354.791.791.791h5.096c.437 0 .791-.354.791-.791v-20.566c0-5.203.077-7.3 1.165-9.009 1.165-1.786 3.184-2.097 5.591-2.097h3.883c2.252 0 4.426.311 5.592 2.097 1.009 1.709 1.165 3.805 1.165 9.009v20.566c0 .437.354.791.791.791h5.096c.437 0 .791-.354.791-.791v-24.06c0-4.893-1.009-7.766-2.796-9.63-1.784-1.942-4.658-3.34-9.939-3.34zm43.883 18.484c-1.088-.855-2.485-1.32-4.116-1.631l-10.174-2.02c-1.398-.232-2.252-.776-2.796-1.475-.543-.777-.776-1.787-.776-3.107 0-2.097.466-2.874 1.087-3.495 1.009-1.087 2.641-1.398 5.359-1.398h2.407c2.804 0 4.912.759 6.667 2.679.313.342.837.379 1.165.051l3.076-3.076c.288-.288.321-.761.056-1.07-2.38-2.779-5.7-3.943-10.731-3.943h-3.185c-4.815 0-8.232 1.243-10.096 3.573-1.32 1.553-1.941 3.572-1.941 5.902v1.708c0 2.718.466 4.816 1.709 6.291 1.087 1.32 2.951 2.253 5.203 2.641l10.174 1.864c1.631.31 2.33.854 2.796 1.553.699.932.854 1.941.854 4.038 0 1.476-.078 3.185-1.32 4.194-1.087.932-2.873 1.165-5.358 1.165h-3.029c-3.702 0-6.099-.914-8.087-3.459-.295-.378-.841-.438-1.187-.105l-3.046 2.933c-.283.273-.327.723-.094 1.04 2.902 3.956 5.938 4.95 12.026 4.95h3.883c4.583 0 7.689-.932 9.63-2.563 2.097-1.787 2.951-4.272 2.951-7.222v-2.253c-.001-3.183-.622-5.979-3.107-7.765zm29.811 13.978h-3.403c-2.33 0-4.193-.621-5.203-2.174-1.01-1.398-1.243-3.184-1.243-8.931v-15.377h7.596c.437 0 .791-.354.791-.791v-3.776c0-.437-.354-.791-.791-.791h-7.596v-12.412c0-.437-.354-.791-.791-.791h-5.096c-.437 0-.791.354-.791.791v12.411h-4.878c-.437 0-.791.354-.791.791v3.776c0 .437.354.791.791.791h4.878v19.027c0 4.815 1.009 7.766 2.796 9.631 1.864 1.864 4.426 3.184 9.552 3.184h4.179c.437 0 .791-.354.791-.791v-3.776c.001-.437-.353-.792-.791-.792zm9.993-48.693c-2.641 0-4.272 1.864-4.272 4.349 0 2.407 1.709 4.272 4.272 4.272s4.349-1.864 4.349-4.272c-.001-2.485-1.709-4.349-4.349-4.349zm2.548 16.852h-5.096c-.437 0-.791.354-.791.791v35.617c0 .437.354.791.791.791h5.096c.437 0 .791-.354.791-.791v-35.617c0-.436-.354-.791-.791-.791zm29.593 31.841h-3.403c-2.33 0-4.193-.621-5.203-2.174-1.009-1.398-1.243-3.184-1.243-8.931v-15.377h7.596c.437 0 .791-.354.791-.791v-3.776c0-.437-.354-.791-.791-.791h-7.596v-12.412c0-.437-.354-.791-.791-.791h-5.096c-.437 0-.791.354-.791.791v12.411h-4.878c-.437 0-.791.354-.791.791v3.776c0 .437.354.791.791.791h4.878v19.027c0 4.815 1.009 7.766 2.796 9.631 1.864 1.864 4.426 3.184 9.552 3.184h4.179c.437 0 .791-.354.791-.791v-3.776c0-.437-.354-.792-.791-.792zm35.074-31.841h-5.096c-.437 0-.791.354-.791.791v20.41c0 5.048-.078 7.378-1.087 9.009-1.165 1.864-3.339 2.097-5.592 2.097h-3.417c-2.252 0-4.426-.233-5.591-2.097-1.088-1.631-1.165-3.961-1.165-9.009v-20.41c0-.437-.354-.791-.791-.791h-5.096c-.437 0-.791.354-.791.791v23.905c0 4.893 1.01 7.766 2.718 9.63 1.786 1.942 4.737 3.34 9.941 3.34h4.893c5.203 0 8.154-1.398 9.941-3.34 1.786-1.864 2.718-4.737 2.718-9.63v-23.905c-.002-.436-.357-.791-.794-.791zm29.049 31.841h-3.402c-2.33 0-4.194-.621-5.203-2.174-1.01-1.398-1.243-3.184-1.243-8.931v-15.377h7.596c.437 0 .791-.354.791-.791v-3.776c0-.437-.354-.791-.791-.791h-7.596v-12.412c0-.437-.354-.791-.791-.791h-5.096c-.437 0-.791.354-.791.791v12.411h-4.878c-.437 0-.791.354-.791.791v3.776c0 .437.354.791.791.791h4.878v19.027c0 4.815 1.01 7.766 2.796 9.631 1.864 1.864 4.426 3.184 9.552 3.184h4.179c.437 0 .791-.354.791-.791v-3.776c0-.437-.355-.792-.792-.792zm35.665-17.318v-2.641c0-4.504-1.243-7.611-3.65-9.63-2.097-1.864-5.281-2.874-9.785-2.874h-3.883c-3.883 0-7.611.777-10.096 3.34-2.174 2.097-3.883 5.669-3.883 15.765 0 10.252 1.787 13.902 4.116 16.076 2.563 2.407 6.135 3.107 9.863 3.107h4.504c4.194 0 6.99-.622 9.242-1.864 1.029-.643 1.845-1.34 2.669-2.222.292-.313.27-.809-.039-1.105l-2.851-2.739c-.303-.291-.786-.3-1.088-.007-.504.488-1.009.934-1.642 1.337-1.708.932-3.805 1.243-6.368 1.243h-3.883c-2.485 0-4.193-.622-5.281-1.786-1.786-1.708-2.175-4.893-2.252-9.319h17.396c5.901-.002 6.911-2.487 6.911-6.681zm-8.698 1.709h-15.61c.077-4.582.388-7.922 2.252-9.708 1.087-1.165 2.718-1.787 5.203-1.787h2.951c2.485 0 4.349.466 5.592 1.709 1.32 1.243 1.708 3.106 1.708 5.28v2.33c0 1.476-.621 2.176-2.096 2.176z" fill="#00326e"/><path d="m146.8 62.478-34.481-59.724c-.763-1.322-2.362-2.245-3.888-2.245h-68.964c-1.526 0-3.125.923-3.889 2.245l-34.481 59.724c-.763 1.322-.763 3.168 0 4.49l34.481 59.724c.763 1.322 2.362 2.245 3.889 2.245h68.963c1.526 0 3.125-.923 3.888-2.245l34.48-59.722c.766-1.323.766-3.171.002-4.492zm-105.521 58.831v-53.794h31.058l15.529 26.897zm49.379-22.062 13.917 24.105h-55.668zm-49.379-91.11 46.587 26.897-15.529 26.897h-31.058zm7.628-2.044h55.668l-13.917 24.105zm28.265 58.63 15.529-26.897 46.587 26.897-46.587 26.897zm60.072-7.628-41.751-24.105 13.917-24.105zm-101.549-43.375v48.21h-27.834zm-27.834 53.795h27.834v48.21zm101.55 53.046-13.917-24.105 41.751-24.105z" fill="#0ac8ff"/></g></svg>