<?xml version="1.0" encoding="utf-8"?>
<!-- Generator: Adobe Illustrator 15.1.0, SVG Export Plug-In . SVG Version: 6.00 Build 0)  -->
<!DOCTYPE svg PUBLIC "-//W3C//DTD SVG 1.1//EN" "http://www.w3.org/Graphics/SVG/1.1/DTD/svg11.dtd">
<svg version="1.1" id="Layer_1" xmlns="http://www.w3.org/2000/svg" xmlns:xlink="http://www.w3.org/1999/xlink" x="0px" y="0px"
	 width="375px" height="216px" viewBox="0 0 375 216" enable-background="new 0 0 375 216" xml:space="preserve">
<g>
	<path fill="#1D1D1B" d="M114.548,117.399h7.341v-0.993l-2.699-0.236v-10.325h3.551v-1.564h-3.551v-1.942
		c0-0.664,0.048-1.184,0.142-1.563c0.096-0.379,0.237-0.664,0.427-0.9c0.188-0.189,0.426-0.33,0.662-0.377
		c0.237-0.048,0.521-0.096,0.854-0.096c0.567,0,1.041,0.048,1.422,0.143c0.378,0.093,0.615,0.19,0.758,0.236v-1.988
		c-0.096-0.049-0.239-0.095-0.521-0.144c-0.236-0.048-0.663-0.048-1.186-0.048c-0.33,0-0.662,0.048-1.042,0.191
		c-0.377,0.142-0.709,0.281-1.089,0.52c-0.378,0.237-0.712,0.521-1.042,0.853c-0.333,0.333-0.615,0.71-0.853,1.138
		c-0.237,0.427-0.426,0.899-0.569,1.421c-0.142,0.52-0.236,1.043-0.236,1.656v0.994l-2.604,0.713v0.9h2.604v10.324l-2.367,0.236
		V117.399L114.548,117.399z M123.927,113.23c0.236,0.854,0.567,1.611,1.042,2.274c0.472,0.665,1.09,1.188,1.847,1.563
		c0.758,0.383,1.657,0.569,2.746,0.569c0.854,0,1.66-0.187,2.37-0.518c0.759-0.335,1.372-0.809,1.941-1.424
		c0.567-0.616,0.994-1.371,1.326-2.226c0.329-0.853,0.474-1.801,0.521-2.842c0-0.946-0.095-1.848-0.33-2.654
		c-0.237-0.85-0.617-1.564-1.091-2.178c-0.475-0.615-1.089-1.089-1.846-1.468c-0.758-0.333-1.612-0.521-2.607-0.521
		c-0.805,0-1.608,0.141-2.369,0.474c-0.756,0.285-1.418,0.757-1.988,1.327c-0.568,0.566-1.042,1.281-1.373,2.082
		c-0.332,0.808-0.521,1.755-0.567,2.797C123.595,111.481,123.691,112.38,123.927,113.23L123.927,113.23z M128.046,115.839
		c-0.473-0.334-0.852-0.76-1.136-1.328c-0.283-0.523-0.521-1.185-0.662-1.894c-0.143-0.711-0.237-1.422-0.237-2.18
		c0-0.852,0.048-1.609,0.188-2.271c0.142-0.667,0.333-1.235,0.663-1.707c0.285-0.474,0.664-0.808,1.137-1.044
		c0.474-0.235,1.042-0.33,1.706-0.33c0.616,0,1.136,0.188,1.61,0.474c0.475,0.285,0.805,0.71,1.138,1.183
		c0.283,0.521,0.521,1.09,0.662,1.801c0.142,0.664,0.188,1.421,0.188,2.226c0,0.9-0.047,1.704-0.188,2.418
		c-0.142,0.71-0.332,1.277-0.616,1.751c-0.282,0.476-0.663,0.851-1.137,1.088c-0.473,0.237-1.041,0.381-1.704,0.333
		C129.041,116.358,128.521,116.17,128.046,115.839L128.046,115.839z M137.284,117.399h7.531v-0.993l-3.362-0.284v-9.19
		c0.379-0.235,0.757-0.426,1.182-0.566c0.429-0.143,0.95-0.236,1.611-0.236c0.285,0,0.522,0,0.709,0.045
		c0.191,0,0.381,0.049,0.57,0.096c0.144,0.047,0.285,0.096,0.425,0.14c0.143,0.051,0.285,0.097,0.38,0.144v-2.416
		c-0.095-0.045-0.237-0.045-0.426-0.045s-0.425,0-0.712,0c-0.377,0-0.757,0.045-1.136,0.188c-0.427,0.142-0.803,0.285-1.184,0.474
		c-0.38,0.189-0.711,0.427-0.995,0.662c-0.283,0.236-0.522,0.474-0.662,0.713v-1.801l-0.569-0.236l-3.126,0.945v0.711l1.657,0.901
		v9.567l-1.894,0.238V117.399L137.284,117.399z M153.2,117.399h5.731v-0.993l-1.705-0.236v-9.474c0.283-0.19,0.567-0.38,0.852-0.474
		c0.283-0.144,0.567-0.236,0.9-0.287c0.284-0.091,0.567-0.14,0.852-0.14c0.285-0.048,0.569-0.048,0.807-0.048
		c0.663,0,1.136,0.097,1.515,0.331c0.381,0.237,0.664,0.57,0.807,1.045c0.188,0.471,0.281,1.043,0.331,1.749
		c0.049,0.713,0.049,1.47,0.049,2.417v4.88l-1.992,0.236v0.993h6.017v-0.993l-1.753-0.236v-5.872c0-1.091-0.047-2.038-0.143-2.845
		c-0.094-0.804-0.332-1.42-0.614-1.942c-0.283-0.52-0.713-0.899-1.187-1.138c-0.52-0.236-1.183-0.378-1.941-0.378
		c-0.33,0-0.661,0.049-1.043,0.142c-0.378,0.096-0.804,0.191-1.182,0.333c-0.429,0.142-0.805,0.33-1.231,0.567
		c-0.428,0.236-0.759,0.474-1.138,0.759l0.047-2.037v-5.21l-0.569-0.283l-3.693,0.471v1.044l1.99,0.427v15.915l-1.754,0.236
		L153.2,117.399L153.2,117.399z M169.115,113.659c0.283,0.852,0.663,1.563,1.136,2.129c0.52,0.57,1.139,1.044,1.847,1.374
		c0.711,0.334,1.563,0.475,2.511,0.475c0.427,0,0.9-0.048,1.377-0.094c0.473-0.047,0.897-0.144,1.37-0.237
		c0.43-0.093,0.806-0.238,1.188-0.424c0.378-0.144,0.662-0.335,0.897-0.571l-0.425-0.992c-0.144,0.095-0.381,0.187-0.664,0.283
		c-0.285,0.094-0.566,0.142-0.899,0.237c-0.331,0.047-0.664,0.094-0.994,0.143c-0.331,0.044-0.665,0.044-0.949,0.044
		c-0.52,0-0.995-0.093-1.562-0.237c-0.521-0.139-0.995-0.375-1.422-0.757c-0.428-0.377-0.805-0.851-1.09-1.469
		c-0.284-0.614-0.476-1.419-0.476-2.367c0-0.046,0-0.095,0-0.141c0-0.05,0-0.095,0-0.144h8.719c0.045-0.283,0.094-0.613,0.094-0.947
		c0.049-0.378,0.049-0.805,0.049-1.278c-0.049-0.758-0.143-1.469-0.381-2.084c-0.235-0.615-0.52-1.137-0.897-1.564
		c-0.382-0.426-0.854-0.757-1.422-0.945c-0.57-0.238-1.186-0.333-1.851-0.285c-0.945,0-1.844,0.237-2.649,0.566
		c-0.807,0.381-1.47,0.854-2.037,1.472c-0.57,0.615-0.994,1.372-1.327,2.177c-0.33,0.852-0.474,1.753-0.474,2.795
		C168.688,111.906,168.832,112.804,169.115,113.659L169.115,113.659z M170.96,109.586c0.05-0.806,0.191-1.517,0.43-2.086
		c0.237-0.568,0.472-1.04,0.805-1.371c0.331-0.381,0.711-0.618,1.089-0.805c0.426-0.144,0.852-0.238,1.278-0.238
		c0.332,0,0.616,0.045,0.9,0.095c0.237,0.047,0.474,0.19,0.711,0.284c0.285,0.188,0.521,0.425,0.71,0.758
		c0.188,0.283,0.284,0.613,0.381,0.994c0.092,0.378,0.142,0.757,0.142,1.137c0,0.427,0,0.806,0,1.184L170.96,109.586L170.96,109.586
		z M181.621,115.175c0.14,0.475,0.427,0.9,0.757,1.28c0.332,0.377,0.758,0.664,1.231,0.898c0.521,0.235,1.043,0.333,1.658,0.333
		c0.473,0,0.947-0.05,1.327-0.098c0.424-0.093,0.757-0.189,1.088-0.329c0.333-0.141,0.615-0.285,0.854-0.476
		c0.236-0.188,0.473-0.378,0.662-0.614v0.332c0,0.282,0.045,0.52,0.141,0.66c0.095,0.144,0.19,0.288,0.331,0.381
		c0.146,0.094,0.285,0.144,0.478,0.144c0.139,0,0.329,0.047,0.47,0.047c0.427,0,0.809-0.047,1.233-0.145
		c0.427-0.093,0.759-0.235,0.994-0.376v-0.758h-1.515v-8.102c0-0.854-0.142-1.563-0.383-2.131c-0.235-0.57-0.565-0.995-0.992-1.327
		c-0.426-0.33-0.9-0.567-1.47-0.663c-0.567-0.141-1.135-0.188-1.75-0.188c-0.286,0-0.662,0.048-1.091,0.093
		c-0.428,0.049-0.852,0.144-1.279,0.236c-0.427,0.097-0.851,0.285-1.278,0.427c-0.428,0.191-0.757,0.381-1.04,0.616l0.425,1.044
		c0.285-0.144,0.567-0.237,0.853-0.381c0.284-0.093,0.614-0.189,0.899-0.283c0.286-0.096,0.616-0.144,0.854-0.188
		c0.284-0.048,0.52-0.048,0.759-0.048c0.473,0,0.899,0.048,1.278,0.093c0.379,0.096,0.71,0.237,1.04,0.427
		c0.285,0.237,0.521,0.522,0.663,0.9c0.144,0.38,0.237,0.9,0.237,1.518v1.04c-0.379,0-0.805,0-1.326,0.049
		c-0.52,0.046-1.042,0.139-1.563,0.236c-0.521,0.095-1.089,0.285-1.61,0.476c-0.521,0.188-1.041,0.426-1.469,0.757
		c-0.428,0.283-0.805,0.661-1.09,1.041c-0.283,0.426-0.474,0.898-0.52,1.421C181.431,114.134,181.479,114.654,181.621,115.175
		L181.621,115.175z M184.036,112.665c0.188-0.285,0.378-0.521,0.663-0.759c0.284-0.237,0.617-0.382,0.994-0.52
		c0.381-0.144,0.757-0.237,1.138-0.332c0.379-0.095,0.806-0.144,1.185-0.19c0.377-0.048,0.758-0.048,1.09-0.048
		c0,0.759,0,1.468,0,2.178c0,0.713,0,1.47,0,2.181c-0.096,0.093-0.287,0.238-0.474,0.378c-0.191,0.143-0.381,0.235-0.616,0.333
		c-0.239,0.096-0.475,0.189-0.713,0.236c-0.234,0.048-0.472,0.095-0.708,0.095c-0.428,0-0.806-0.047-1.185-0.142
		c-0.332-0.094-0.616-0.236-0.854-0.426s-0.427-0.475-0.568-0.808c-0.141-0.331-0.189-0.708-0.189-1.183
		C183.799,113.281,183.848,112.948,184.036,112.665L184.036,112.665z M194.786,117.399h6.35v-0.993l-2.087-0.236V98.597
		l-0.473-0.285l-3.693,0.475v1.041l1.893,0.428v15.915l-1.989,0.236V117.399L194.786,117.399z M204.402,116.882
		c0.475,0.518,1.138,0.805,1.989,0.805c0.286,0,0.57-0.05,0.903-0.098c0.332-0.046,0.707-0.139,1.041-0.235
		c0.329-0.094,0.664-0.234,0.945-0.379c0.285-0.143,0.521-0.334,0.713-0.52l-0.38-1.042c-0.096,0.047-0.237,0.14-0.426,0.188
		c-0.188,0.048-0.379,0.142-0.615,0.187c-0.237,0.051-0.474,0.098-0.712,0.145c-0.234,0.049-0.472,0.049-0.661,0.049
		c-0.331,0-0.568-0.049-0.76-0.193c-0.189-0.093-0.331-0.328-0.426-0.661c-0.094-0.332-0.146-0.757-0.188-1.327
		c0-0.569-0.049-1.327-0.049-2.225v-5.923h3.93v-1.467h-3.93v-3.126h-1.187c0,0.095-0.044,0.283-0.092,0.521
		c-0.049,0.235-0.143,0.474-0.188,0.757c-0.097,0.285-0.146,0.521-0.237,0.805c-0.097,0.236-0.144,0.474-0.19,0.569
		c-0.093,0.188-0.189,0.332-0.283,0.425c-0.097,0.096-0.236,0.191-0.38,0.236c-0.142,0.049-0.333,0.144-0.57,0.192
		c-0.236,0.046-0.521,0.142-0.85,0.188v0.898h1.8c0,1.421,0,2.891,0,4.312c0,1.423,0,2.84,0,4.31
		C203.739,115.505,203.977,116.358,204.402,116.882L204.402,116.882z M212.028,117.399h5.734v-0.993l-1.707-0.236v-9.474
		c0.283-0.19,0.567-0.38,0.854-0.474c0.282-0.144,0.567-0.236,0.897-0.287c0.284-0.091,0.572-0.14,0.853-0.14
		c0.285-0.048,0.57-0.048,0.808-0.048c0.662,0,1.135,0.097,1.515,0.331c0.38,0.237,0.663,0.57,0.853,1.045
		c0.191,0.471,0.285,1.043,0.331,1.749c0.049,0.713,0.049,1.47,0.049,2.417v4.88l-1.99,0.236v0.993h6.018v-0.993l-1.755-0.236
		v-5.872c0-1.091-0.046-2.038-0.142-2.845c-0.094-0.804-0.331-1.42-0.616-1.942c-0.283-0.52-0.71-0.899-1.182-1.138
		c-0.521-0.236-1.186-0.378-1.945-0.378c-0.33,0-0.663,0.049-1.041,0.142c-0.38,0.096-0.805,0.191-1.182,0.333
		c-0.427,0.142-0.808,0.33-1.234,0.567c-0.426,0.236-0.756,0.474-1.137,0.759l0.047-2.037v-5.21l-0.567-0.283l-3.693,0.471v1.044
		l1.986,0.427v15.915l-1.753,0.236V117.399L212.028,117.399z M228.134,123.275c0.05,0.048,0.094,0.048,0.145,0.048
		c0.046,0,0.14,0.044,0.237,0.044c0.095,0,0.188,0.05,0.283,0.05c0.092,0,0.187,0,0.238,0c0.375,0,0.707-0.05,1.042-0.094
		c0.473-0.097,0.943-0.333,1.325-0.617c0.376-0.285,0.757-0.662,1.088-1.136c0.331-0.475,0.662-0.995,0.995-1.612
		c0.33-0.616,0.615-1.326,0.901-2.133c0.046-0.139,0.141-0.329,0.235-0.612c0.094-0.238,0.19-0.572,0.333-0.95
		c0.14-0.377,0.329-0.901,0.519-1.468c0.193-0.568,0.475-1.325,0.758-2.13c0.285-0.854,0.617-1.849,1.043-2.983
		c0.428-1.139,0.854-2.515,1.375-4.029l1.324-0.188v-1.232h-5.064v1.232l1.845,0.188l-2.367,7.91l-0.664,2.419l-0.806-2.419
		l-2.749-7.862l1.707-0.235v-1.232h-5.449v1.232l1.235,0.188l4.689,11.701h0.521c-0.237,0.854-0.572,1.563-0.854,2.133
		c-0.333,0.521-0.663,0.946-0.997,1.23c-0.331,0.282-0.661,0.473-0.992,0.615c-0.332,0.094-0.618,0.144-0.9,0.144
		c-0.145,0-0.284,0-0.476-0.05c-0.189-0.046-0.33-0.046-0.471-0.094L228.134,123.275L228.134,123.275z M246.23,115.175
		c0.139,0.475,0.425,0.9,0.757,1.28c0.332,0.377,0.757,0.664,1.234,0.898c0.518,0.235,1.04,0.333,1.654,0.333
		c0.477,0,0.948-0.05,1.327-0.098c0.429-0.093,0.759-0.189,1.091-0.329c0.33-0.141,0.616-0.285,0.851-0.476
		c0.238-0.188,0.475-0.378,0.663-0.614v0.332c0,0.282,0.049,0.52,0.144,0.66c0.094,0.144,0.188,0.288,0.331,0.381
		c0.143,0.094,0.283,0.144,0.475,0.144c0.14,0,0.33,0.047,0.473,0.047c0.428,0,0.806-0.047,1.23-0.145
		c0.428-0.093,0.761-0.235,0.996-0.376v-0.758h-1.516v-8.102c0-0.854-0.142-1.563-0.381-2.131c-0.236-0.57-0.569-0.995-0.994-1.327
		c-0.426-0.33-0.897-0.567-1.468-0.663c-0.569-0.141-1.136-0.188-1.754-0.188c-0.283,0-0.661,0.048-1.087,0.093
		c-0.425,0.049-0.853,0.144-1.279,0.236c-0.426,0.097-0.851,0.285-1.279,0.427c-0.426,0.191-0.757,0.381-1.043,0.616l0.428,1.044
		c0.284-0.144,0.565-0.237,0.851-0.381c0.288-0.093,0.618-0.189,0.901-0.283c0.285-0.096,0.614-0.144,0.852-0.188
		c0.283-0.048,0.52-0.048,0.757-0.048c0.477,0,0.9,0.048,1.28,0.093c0.38,0.096,0.709,0.237,1.041,0.427
		c0.286,0.237,0.521,0.522,0.664,0.9c0.143,0.38,0.239,0.9,0.239,1.518v1.04c-0.382,0-0.807,0-1.328,0.049
		c-0.52,0.046-1.043,0.139-1.563,0.236c-0.521,0.095-1.091,0.285-1.612,0.476c-0.521,0.188-1.038,0.426-1.467,0.757
		c-0.426,0.283-0.807,0.661-1.092,1.041c-0.28,0.426-0.474,0.898-0.518,1.421C246.04,114.134,246.089,114.654,246.23,115.175
		L246.23,115.175z M248.645,112.665c0.19-0.285,0.38-0.521,0.664-0.759c0.285-0.237,0.615-0.382,0.994-0.52
		c0.38-0.144,0.758-0.237,1.138-0.332s0.804-0.144,1.184-0.19c0.378-0.048,0.759-0.048,1.088-0.048c0,0.759,0,1.468,0,2.178
		c0,0.713,0,1.47,0,2.181c-0.093,0.093-0.283,0.238-0.471,0.378c-0.19,0.143-0.38,0.235-0.617,0.333
		c-0.235,0.096-0.474,0.189-0.713,0.236c-0.234,0.048-0.471,0.095-0.708,0.095c-0.426,0-0.804-0.047-1.184-0.142
		c-0.333-0.094-0.615-0.236-0.854-0.426c-0.236-0.189-0.426-0.475-0.566-0.808c-0.143-0.331-0.191-0.708-0.191-1.183
		C248.362,113.281,248.456,112.948,248.645,112.665L248.645,112.665z M259.539,121.809c0.333,0.471,0.757,0.803,1.279,1.086
		c0.521,0.284,1.137,0.473,1.801,0.568c0.664,0.095,1.374,0.143,2.083,0.143c0.995,0,1.85-0.091,2.609-0.33
		c0.755-0.238,1.418-0.522,1.938-0.9c0.522-0.379,0.948-0.853,1.234-1.419c0.283-0.572,0.425-1.139,0.425-1.852
		c0-0.236,0-0.52-0.048-0.805c0-0.282-0.094-0.566-0.191-0.804c-0.092-0.236-0.235-0.521-0.424-0.804
		c-0.189-0.237-0.474-0.476-0.805-0.667c-0.33-0.187-0.757-0.33-1.279-0.473c-0.521-0.093-1.138-0.191-1.847-0.191
		c-0.664,0-1.279,0-1.753,0c-0.476,0-0.902,0-1.278-0.043c-0.568-0.051-0.949-0.191-1.187-0.427
		c-0.235-0.237-0.329-0.567-0.329-0.995c0-0.097,0-0.189,0-0.284c0-0.143,0-0.238,0-0.382c0-0.14,0-0.282,0.046-0.427
		c0-0.139,0.048-0.282,0.095-0.424c0.711,0.285,1.564,0.424,2.463,0.424c0.712,0,1.326-0.093,1.989-0.331
		c0.617-0.188,1.186-0.52,1.658-0.948c0.474-0.424,0.854-0.896,1.135-1.514c0.287-0.615,0.43-1.279,0.43-2.083
		c0-0.428-0.047-0.854-0.143-1.231c-0.094-0.38-0.237-0.71-0.381-0.996h2.322v-1.753h-1.42c-0.521,0-0.902,0.048-1.186,0.189
		c-0.284,0.096-0.521,0.285-0.71,0.429c-0.426-0.333-0.948-0.57-1.564-0.759c-0.567-0.143-1.229-0.236-1.893-0.19
		c-0.664,0-1.326,0.143-1.944,0.331c-0.661,0.189-1.23,0.475-1.705,0.902c-0.522,0.378-0.9,0.898-1.229,1.467
		c-0.334,0.615-0.475,1.278-0.475,2.086c0,0.852,0.19,1.562,0.521,2.177c0.331,0.57,0.808,1.044,1.374,1.423
		c-0.234,0.188-0.427,0.471-0.617,0.709c-0.188,0.283-0.33,0.52-0.474,0.806c-0.14,0.235-0.237,0.521-0.283,0.71
		c-0.046,0.237-0.094,0.428-0.094,0.568c0,0.143,0,0.332,0,0.523c0,0.187,0.048,0.377,0.14,0.567
		c0.098,0.189,0.19,0.331,0.381,0.521c0.19,0.141,0.426,0.332,0.808,0.426c-0.192,0.143-0.427,0.287-0.666,0.521
		c-0.237,0.235-0.425,0.472-0.662,0.758c-0.189,0.286-0.378,0.567-0.474,0.901c-0.144,0.329-0.19,0.665-0.19,1.042
		C259.065,120.81,259.209,121.38,259.539,121.809L259.539,121.809z M263.234,111.387c-0.426-0.191-0.71-0.427-0.994-0.759
		c-0.236-0.33-0.427-0.711-0.567-1.138c-0.098-0.427-0.19-0.897-0.19-1.374c0-0.616,0.093-1.089,0.235-1.467
		c0.144-0.38,0.333-0.714,0.616-0.949c0.237-0.235,0.568-0.427,0.9-0.52c0.332-0.095,0.711-0.144,1.09-0.144
		c0.996,0,1.751,0.287,2.272,0.853c0.521,0.57,0.756,1.423,0.756,2.607c0,0.521-0.041,0.993-0.139,1.42
		c-0.096,0.426-0.236,0.757-0.474,0.994c-0.188,0.284-0.474,0.476-0.806,0.613c-0.331,0.145-0.758,0.191-1.232,0.191
		C264.133,111.669,263.659,111.575,263.234,111.387L263.234,111.387z M261.291,118.585c0.049-0.237,0.096-0.426,0.144-0.614
		c0.048-0.191,0.141-0.334,0.238-0.475c0.095-0.143,0.188-0.236,0.282-0.377c0.285,0.043,0.616,0.094,0.997,0.094
		c0.377,0.047,0.757,0.047,1.23,0.047l1.468,0.046c0.71,0,1.327,0.048,1.754,0.145c0.472,0.093,0.805,0.236,1.042,0.47
		c0.237,0.191,0.426,0.478,0.52,0.759c0.094,0.285,0.145,0.618,0.145,0.999c0,0.423-0.097,0.801-0.286,1.132
		c-0.191,0.333-0.473,0.616-0.806,0.807c-0.333,0.192-0.805,0.38-1.278,0.471c-0.522,0.098-1.09,0.147-1.705,0.147
		c-0.521,0-0.995-0.05-1.469-0.147c-0.475-0.091-0.852-0.278-1.185-0.517c-0.331-0.238-0.614-0.521-0.807-0.901
		c-0.188-0.378-0.284-0.806-0.284-1.372C261.247,119.104,261.291,118.822,261.291,118.585L261.291,118.585z M272.661,113.659
		c0.285,0.852,0.663,1.563,1.139,2.129c0.52,0.57,1.135,1.044,1.845,1.374c0.713,0.334,1.565,0.475,2.512,0.475
		c0.426,0,0.899-0.048,1.373-0.094c0.474-0.047,0.899-0.144,1.372-0.237c0.427-0.093,0.807-0.238,1.185-0.424
		c0.38-0.144,0.666-0.335,0.9-0.571l-0.426-0.992c-0.143,0.095-0.381,0.187-0.661,0.283c-0.286,0.094-0.571,0.142-0.901,0.237
		c-0.333,0.047-0.663,0.094-0.995,0.143c-0.329,0.044-0.662,0.044-0.947,0.044c-0.521,0-0.994-0.093-1.516-0.237
		c-0.521-0.139-0.996-0.375-1.42-0.757c-0.427-0.377-0.807-0.851-1.093-1.469c-0.284-0.614-0.471-1.419-0.471-2.367
		c0-0.046,0-0.095,0-0.141c0-0.05,0-0.095,0-0.144h8.716c0.046-0.283,0.094-0.613,0.094-0.947c0.047-0.378,0.047-0.805,0.047-1.278
		c-0.047-0.758-0.141-1.469-0.38-2.084c-0.236-0.615-0.519-1.137-0.897-1.564c-0.381-0.426-0.854-0.757-1.423-0.945
		c-0.569-0.238-1.184-0.333-1.849-0.285c-0.946,0-1.846,0.237-2.653,0.566c-0.801,0.381-1.468,0.854-2.034,1.472
		c-0.567,0.615-0.995,1.372-1.326,2.177c-0.33,0.852-0.475,1.753-0.475,2.795C272.282,111.906,272.424,112.804,272.661,113.659
		L272.661,113.659z M274.557,109.586c0.047-0.806,0.187-1.517,0.426-2.086c0.235-0.568,0.472-1.04,0.802-1.371
		c0.336-0.381,0.714-0.618,1.094-0.805c0.424-0.144,0.851-0.238,1.278-0.238c0.33,0,0.614,0.045,0.899,0.095
		c0.235,0.047,0.474,0.19,0.711,0.284c0.282,0.188,0.52,0.425,0.709,0.758c0.189,0.283,0.285,0.613,0.38,0.994
		c0.096,0.378,0.143,0.757,0.143,1.137c0,0.427,0,0.806,0,1.184L274.557,109.586L274.557,109.586z M288.575,101.105
		c0.191-0.094,0.381-0.189,0.571-0.331c0.142-0.142,0.281-0.332,0.378-0.52c0.093-0.189,0.14-0.428,0.14-0.711
		c0-0.38-0.14-0.758-0.376-1.043c-0.237-0.284-0.618-0.428-1.139-0.428c-0.188,0-0.427,0.049-0.616,0.144
		c-0.188,0.095-0.378,0.189-0.567,0.38c-0.141,0.14-0.284,0.331-0.428,0.567c-0.094,0.189-0.14,0.427-0.14,0.663
		c0,0.238,0.046,0.428,0.14,0.615c0.097,0.19,0.191,0.332,0.331,0.474c0.146,0.144,0.286,0.238,0.476,0.285
		c0.188,0.047,0.378,0.095,0.567,0.095C288.149,101.248,288.387,101.201,288.575,101.105L288.575,101.105z M285.354,117.399h6.063
		v-0.993l-1.894-0.236v-11.89L289,104.044l-3.264,0.947v0.709l1.608,0.853v9.617l-1.99,0.236V117.399L285.354,117.399z
		 M293.409,117.399h5.635v-0.993l-1.753-0.236v-9.19c0.616-0.427,1.184-0.71,1.705-0.9c0.522-0.189,1.044-0.283,1.565-0.331
		c0.615,0,1.089,0.048,1.465,0.188c0.381,0.144,0.666,0.43,0.854,0.761s0.334,0.804,0.426,1.325
		c0.047,0.521,0.096,1.186,0.096,1.896v6.205l-1.752,0.236v0.995h5.922v-0.995l-1.894-0.236v-6.632c0-0.993-0.052-1.845-0.19-2.559
		c-0.143-0.709-0.332-1.279-0.665-1.751c-0.283-0.474-0.711-0.759-1.184-0.995c-0.475-0.238-1.09-0.285-1.851-0.285
		c-0.374,0-0.801,0.095-1.277,0.191c-0.426,0.094-0.897,0.281-1.324,0.425c-0.427,0.19-0.807,0.379-1.185,0.614
		c-0.379,0.24-0.712,0.429-0.947,0.665v-1.659l-0.521-0.236l-3.125,0.949v0.71l1.655,0.9v9.71l-1.61,0.236L293.409,117.399
		L293.409,117.399z M309.61,121.809c0.329,0.471,0.757,0.803,1.277,1.086c0.52,0.284,1.135,0.473,1.799,0.568
		c0.667,0.095,1.374,0.143,2.085,0.143c0.946,0,1.847-0.091,2.605-0.33c0.758-0.238,1.421-0.522,1.941-0.9
		c0.523-0.379,0.948-0.853,1.229-1.419c0.285-0.572,0.428-1.139,0.428-1.852c0-0.236,0-0.52-0.046-0.805
		c0-0.282-0.097-0.566-0.19-0.804c-0.097-0.283-0.236-0.521-0.428-0.804c-0.189-0.237-0.47-0.476-0.804-0.667
		c-0.33-0.187-0.76-0.33-1.279-0.473c-0.519-0.093-1.137-0.191-1.849-0.191c-0.662,0-1.277,0-1.75,0c-0.479,0-0.902,0-1.276-0.043
		c-0.573-0.051-0.95-0.191-1.187-0.427c-0.238-0.237-0.333-0.567-0.333-0.995c0-0.097,0-0.189,0-0.284c0-0.143,0-0.238,0-0.382
		c0-0.14,0-0.282,0.049-0.427c0-0.139,0.046-0.282,0.094-0.424c0.71,0.285,1.563,0.424,2.463,0.424c0.712,0,1.327-0.093,1.99-0.331
		c0.615-0.188,1.184-0.52,1.657-0.948c0.475-0.424,0.853-0.896,1.138-1.514c0.283-0.615,0.426-1.279,0.426-2.083
		c0-0.428-0.047-0.854-0.143-1.231c-0.094-0.38-0.239-0.71-0.379-0.996h2.321v-1.753h-1.422c-0.521,0-0.899,0.048-1.186,0.189
		c-0.281,0.096-0.519,0.285-0.708,0.429c-0.425-0.333-0.947-0.57-1.564-0.759c-0.566-0.143-1.23-0.236-1.896-0.19
		c-0.663,0-1.321,0.143-1.941,0.331c-0.66,0.189-1.23,0.475-1.705,0.902c-0.521,0.378-0.9,0.898-1.23,1.467
		c-0.334,0.615-0.474,1.278-0.474,2.086c0,0.852,0.191,1.562,0.521,2.177c0.33,0.57,0.804,1.044,1.372,1.423
		c-0.237,0.188-0.424,0.471-0.614,0.709c-0.19,0.283-0.332,0.52-0.476,0.806c-0.143,0.235-0.237,0.521-0.282,0.71
		c-0.048,0.237-0.096,0.428-0.096,0.568c0,0.143,0,0.332,0,0.523c0,0.187,0.048,0.377,0.141,0.567
		c0.095,0.189,0.191,0.331,0.381,0.521c0.189,0.141,0.425,0.332,0.806,0.426c-0.189,0.143-0.428,0.287-0.664,0.521
		c-0.237,0.235-0.428,0.472-0.663,0.758c-0.191,0.286-0.379,0.567-0.473,0.901c-0.144,0.329-0.189,0.665-0.189,1.042
		C309.088,120.81,309.277,121.38,309.61,121.809L309.61,121.809z M313.302,111.387c-0.427-0.191-0.709-0.427-0.994-0.759
		c-0.234-0.33-0.425-0.711-0.567-1.138c-0.095-0.427-0.19-0.897-0.19-1.374c0-0.616,0.096-1.089,0.236-1.467
		c0.143-0.38,0.33-0.714,0.617-0.949c0.234-0.235,0.567-0.427,0.898-0.52c0.332-0.095,0.71-0.144,1.09-0.144
		c0.996,0,1.754,0.287,2.275,0.853c0.521,0.57,0.757,1.423,0.757,2.607c0,0.521-0.047,0.993-0.142,1.42
		c-0.095,0.426-0.237,0.757-0.475,0.994c-0.189,0.284-0.473,0.476-0.804,0.613c-0.332,0.145-0.759,0.191-1.232,0.191
		C314.151,111.669,313.681,111.575,313.302,111.387L313.302,111.387z M311.359,118.585c0.048-0.237,0.094-0.426,0.144-0.614
		c0.047-0.191,0.143-0.334,0.237-0.475c0.094-0.143,0.188-0.236,0.282-0.377c0.285,0.043,0.615,0.094,0.996,0.094
		c0.376,0.047,0.759,0.047,1.231,0.047l1.468,0.046c0.712,0,1.327,0.048,1.752,0.145c0.476,0.093,0.805,0.236,1.041,0.47
		c0.237,0.191,0.429,0.478,0.521,0.759c0.097,0.285,0.146,0.618,0.146,0.999c0,0.423-0.097,0.801-0.286,1.132
		c-0.188,0.333-0.475,0.616-0.805,0.807c-0.334,0.192-0.758,0.38-1.279,0.471c-0.522,0.098-1.09,0.147-1.705,0.147
		c-0.522,0-0.994-0.05-1.469-0.147c-0.474-0.091-0.854-0.278-1.185-0.517c-0.333-0.238-0.615-0.521-0.804-0.901
		c-0.192-0.378-0.286-0.806-0.286-1.372C311.265,119.104,311.315,118.822,311.359,118.585L311.359,118.585z"/>
	<path fill="#1D1D1B" d="M114.263,88.033h6.964v-0.994l-2.417-0.333V80.17c0.38,0,0.711,0,0.994,0c0.334,0,0.616,0,0.854,0
		c0.333-0.048,0.663,0.048,0.995,0.285c0.331,0.189,0.616,0.472,0.947,0.853c0.284,0.377,0.567,0.805,0.854,1.277
		c0.283,0.474,0.567,0.948,0.805,1.469c0.236,0.521,0.521,0.996,0.711,1.467c0.236,0.475,0.426,0.948,0.662,1.329
		c0.19,0.379,0.38,0.709,0.568,0.898c0.189,0.236,0.333,0.331,0.475,0.331h3.41v-0.992l-1.28-0.333
		c-0.188-0.048-0.425-0.238-0.663-0.569c-0.237-0.331-0.475-0.71-0.757-1.135c-0.284-0.476-0.521-0.947-0.852-1.47
		c-0.284-0.521-0.617-1.041-0.901-1.563c-0.332-0.472-0.662-0.947-0.995-1.326c-0.332-0.379-0.709-0.709-1.088-0.853
		c-0.047,0-0.095-0.047-0.095-0.047c-0.049,0-0.096-0.047-0.096-0.047c0.569-0.189,1.137-0.476,1.611-0.806
		c0.472-0.331,0.898-0.71,1.23-1.185c0.333-0.427,0.616-0.946,0.804-1.469c0.191-0.521,0.287-1.135,0.287-1.705
		c0-0.948-0.143-1.754-0.475-2.368c-0.283-0.617-0.71-1.138-1.278-1.517c-0.568-0.378-1.185-0.615-1.942-0.804
		c-0.759-0.143-1.563-0.237-2.463-0.237c-0.805,0-1.469,0.047-2.084,0.095c-0.616,0.046-1.09,0.094-1.47,0.094H114.5v1.28
		l1.94,0.188v15.442l-2.227,0.333v0.946H114.263z M118.764,71.074c0.284-0.093,0.614-0.142,0.994-0.142
		c0.332,0,0.71-0.046,1.089-0.046c0.806-0.049,1.422,0.046,1.943,0.236c0.521,0.188,0.946,0.425,1.277,0.758
		c0.333,0.331,0.522,0.757,0.664,1.231c0.142,0.473,0.188,1.042,0.188,1.657c0,0.711-0.092,1.373-0.284,1.895
		c-0.189,0.521-0.473,0.948-0.806,1.279c-0.329,0.332-0.804,0.568-1.278,0.757c-0.52,0.144-1.089,0.238-1.705,0.238
		c-0.143,0-0.283,0-0.474,0c-0.189,0-0.378,0-0.615,0c-0.189,0-0.38,0-0.568,0c-0.189,0-0.331,0-0.426-0.049V71.074L118.764,71.074z
		 M130.938,84.337c0.284,0.854,0.662,1.564,1.136,2.132c0.52,0.57,1.137,1.043,1.848,1.375c0.71,0.332,1.563,0.473,2.509,0.473
		c0.427,0,0.9-0.047,1.376-0.095c0.473-0.046,0.898-0.143,1.372-0.237c0.427-0.095,0.807-0.236,1.185-0.426
		c0.38-0.141,0.664-0.33,0.899-0.567l-0.426-0.996c-0.142,0.097-0.381,0.189-0.663,0.286c-0.284,0.094-0.568,0.141-0.898,0.234
		c-0.333,0.049-0.664,0.097-0.996,0.145c-0.331,0.046-0.663,0.046-0.948,0.046c-0.521,0-0.994-0.094-1.515-0.237
		c-0.523-0.142-0.996-0.377-1.422-0.758c-0.426-0.379-0.805-0.852-1.09-1.467c-0.283-0.617-0.474-1.423-0.474-2.369
		c0-0.048,0-0.094,0-0.142c0-0.049,0-0.096,0-0.143h8.717c0.048-0.283,0.096-0.614,0.096-0.946c0.046-0.378,0.046-0.807,0.046-1.28
		c-0.046-0.757-0.142-1.469-0.378-2.083c-0.237-0.617-0.521-1.139-0.901-1.563c-0.378-0.426-0.853-0.761-1.421-0.948
		c-0.567-0.237-1.183-0.332-1.846-0.283c-0.948,0-1.851,0.236-2.653,0.568c-0.806,0.378-1.469,0.852-2.036,1.466
		c-0.57,0.617-0.996,1.375-1.327,2.18c-0.331,0.854-0.473,1.755-0.473,2.795C130.558,82.539,130.699,83.484,130.938,84.337
		L130.938,84.337z M132.83,80.267c0.05-0.81,0.19-1.518,0.427-2.086c0.237-0.568,0.476-1.043,0.805-1.373
		c0.332-0.38,0.711-0.617,1.091-0.807c0.427-0.142,0.853-0.236,1.277-0.236c0.333,0,0.616,0.047,0.9,0.095
		c0.236,0.047,0.476,0.19,0.712,0.283c0.282,0.19,0.521,0.426,0.712,0.758c0.188,0.285,0.283,0.616,0.376,0.995
		c0.096,0.38,0.145,0.759,0.145,1.137c0,0.425,0,0.806,0,1.186L132.83,80.267L132.83,80.267z M143.773,88.033h5.636v-0.994
		l-1.799-0.237c0-1.185,0-2.369,0-3.506c0-1.184,0-2.319,0-3.505v-2.133c0.616-0.425,1.182-0.709,1.704-0.9
		c0.521-0.189,1.043-0.283,1.469-0.33c0.617,0,1.09,0.047,1.468,0.19c0.38,0.14,0.664,0.377,0.854,0.709
		c0.188,0.331,0.33,0.76,0.426,1.327c0.094,0.521,0.094,1.184,0.094,1.894v6.254l-1.752,0.237v0.994h5.827v-0.994l-1.8-0.237V80.17
		c0-0.522,0-0.994-0.05-1.516c-0.047-0.474-0.094-0.9-0.188-1.279c0.52-0.284,1.042-0.52,1.563-0.711
		c0.52-0.189,1.042-0.283,1.609-0.283c0.616,0,1.09,0.047,1.468,0.188c0.378,0.144,0.664,0.427,0.854,0.759
		c0.188,0.381,0.332,0.805,0.426,1.373c0.048,0.568,0.095,1.185,0.095,1.944v6.157l-1.608,0.237v0.994h5.827v-0.994l-1.992-0.237
		v-6.535c0-0.998-0.046-1.898-0.189-2.608c-0.143-0.709-0.333-1.325-0.663-1.752c-0.283-0.474-0.71-0.806-1.232-0.993
		c-0.52-0.19-1.138-0.286-1.847-0.286c-0.379,0-0.758,0.049-1.231,0.143c-0.427,0.095-0.854,0.236-1.279,0.381
		c-0.427,0.142-0.805,0.33-1.23,0.52c-0.381,0.189-0.712,0.38-0.995,0.615c-0.284-0.615-0.712-1.09-1.231-1.328
		c-0.521-0.234-1.186-0.377-2.037-0.33c-0.379,0-0.805,0.096-1.279,0.19c-0.426,0.096-0.853,0.283-1.279,0.427
		c-0.426,0.188-0.804,0.379-1.183,0.615c-0.379,0.235-0.663,0.426-0.948,0.661v-1.656l-0.521-0.237l-3.127,0.949v0.709l1.659,0.9
		v9.616l-1.611,0.237v0.994H143.773z M167.598,85.808c0.143,0.474,0.428,0.898,0.759,1.279c0.332,0.378,0.759,0.661,1.233,0.897
		c0.52,0.237,1.041,0.332,1.657,0.332c0.474,0,0.947-0.047,1.324-0.095c0.427-0.095,0.758-0.188,1.09-0.332
		c0.331-0.142,0.617-0.283,0.853-0.472c0.236-0.189,0.476-0.379,0.664-0.616v0.331c0,0.285,0.049,0.521,0.144,0.663
		c0.093,0.143,0.188,0.283,0.33,0.38c0.142,0.094,0.284,0.141,0.476,0.141c0.14,0,0.331,0.049,0.471,0.049
		c0.43,0,0.808-0.049,1.231-0.144c0.43-0.095,0.757-0.237,0.995-0.378v-0.757h-1.516v-8.101c0-0.854-0.142-1.564-0.378-2.131
		c-0.237-0.57-0.568-0.996-0.995-1.326c-0.427-0.334-0.9-0.572-1.467-0.665c-0.57-0.142-1.14-0.188-1.754-0.188
		c-0.284,0-0.664,0.047-1.088,0.094c-0.428,0.048-0.856,0.144-1.28,0.236c-0.426,0.095-0.854,0.286-1.278,0.427
		c-0.427,0.19-0.758,0.379-1.043,0.617l0.427,1.041c0.282-0.142,0.567-0.235,0.853-0.379c0.285-0.094,0.616-0.191,0.899-0.284
		c0.285-0.095,0.616-0.143,0.854-0.189c0.283-0.048,0.52-0.048,0.757-0.048c0.475,0,0.9,0.048,1.28,0.095
		c0.377,0.096,0.71,0.235,1.04,0.427c0.286,0.237,0.522,0.521,0.662,0.9c0.144,0.379,0.238,0.899,0.238,1.515v1.043
		c-0.378,0-0.804,0-1.326,0.048c-0.52,0.049-1.041,0.142-1.562,0.237c-0.521,0.093-1.09,0.283-1.612,0.472
		c-0.521,0.191-1.042,0.428-1.467,0.758c-0.427,0.286-0.806,0.665-1.091,1.042c-0.283,0.427-0.474,0.9-0.521,1.42
		C167.408,84.812,167.456,85.332,167.598,85.808L167.598,85.808z M169.967,83.296c0.19-0.283,0.38-0.521,0.664-0.757
		c0.283-0.237,0.616-0.379,0.996-0.522c0.377-0.142,0.756-0.235,1.135-0.332c0.38-0.094,0.807-0.14,1.186-0.189
		c0.378-0.047,0.759-0.047,1.088-0.047c0,0.758,0,1.471,0,2.179c0,0.71,0,1.469,0,2.181c-0.095,0.094-0.285,0.235-0.474,0.377
		c-0.189,0.143-0.376,0.237-0.614,0.331c-0.238,0.097-0.476,0.19-0.713,0.238c-0.236,0.048-0.473,0.096-0.709,0.096
		c-0.428,0-0.805-0.048-1.185-0.144c-0.331-0.094-0.616-0.237-0.852-0.425c-0.238-0.189-0.427-0.474-0.568-0.761
		c-0.143-0.33-0.188-0.709-0.188-1.184C169.732,83.958,169.825,83.627,169.967,83.296L169.967,83.296z M180.768,88.033h7.53v-0.994
		l-3.361-0.285v-9.189c0.38-0.237,0.757-0.427,1.184-0.569c0.428-0.14,0.948-0.237,1.609-0.237c0.286,0,0.521,0,0.711,0.05
		c0.191,0.048,0.378,0.048,0.569,0.093c0.143,0.049,0.284,0.095,0.425,0.145c0.143,0.046,0.285,0.093,0.382,0.141V74.77
		c-0.097-0.047-0.239-0.047-0.427-0.047c-0.19,0-0.428,0-0.713,0c-0.379,0-0.758,0.047-1.136,0.19
		c-0.426,0.142-0.805,0.282-1.184,0.472c-0.38,0.191-0.712,0.427-0.995,0.665c-0.284,0.235-0.521,0.471-0.663,0.708v-1.801
		l-0.569-0.234l-3.126,0.947v0.711l1.656,0.9v9.521l-1.893,0.237V88.033L180.768,88.033z M190.811,88.033h5.872v-0.994l-1.706-0.237
		v-1.327l-0.046-2.274l1.845-1.846l3.887,5.447l-1.613,0.285v0.992h5.689v-0.992l-1.614-0.237l-4.973-6.583l3.978-4.028l1.801-0.188
		v-1.232h-5.543v1.232l1.753,0.141l-5.209,5.4l0.046-1.8V69.228l-0.471-0.283l-3.888,0.473v1.043l2.131,0.427v15.915l-1.938,0.237
		V88.033L190.811,88.033z M206.063,85.808c0.14,0.474,0.426,0.898,0.757,1.279c0.33,0.378,0.757,0.661,1.232,0.897
		c0.473,0.237,1.042,0.332,1.655,0.332c0.477,0,0.95-0.047,1.329-0.095c0.427-0.095,0.759-0.188,1.09-0.332
		c0.33-0.142,0.614-0.283,0.85-0.472c0.238-0.189,0.478-0.379,0.664-0.616v0.331c0,0.285,0.051,0.521,0.142,0.663
		c0.096,0.143,0.189,0.283,0.334,0.38c0.14,0.094,0.282,0.141,0.473,0.141c0.142,0,0.331,0.049,0.473,0.049
		c0.428,0,0.805-0.049,1.231-0.144c0.428-0.095,0.759-0.237,0.996-0.378v-0.757h-1.517v-8.101c0-0.854-0.141-1.564-0.377-2.131
		c-0.237-0.57-0.57-0.996-0.997-1.326c-0.427-0.334-0.9-0.572-1.468-0.665c-0.569-0.142-1.135-0.188-1.752-0.188
		c-0.283,0-0.663,0.047-1.089,0.094c-0.428,0.048-0.853,0.144-1.279,0.236c-0.426,0.095-0.853,0.286-1.279,0.427
		c-0.426,0.19-0.758,0.379-1.042,0.617l0.426,1.041c0.286-0.142,0.568-0.235,0.852-0.379c0.286-0.094,0.618-0.191,0.899-0.284
		c0.285-0.095,0.616-0.143,0.854-0.189c0.284-0.048,0.521-0.048,0.759-0.048c0.475,0,0.9,0.048,1.279,0.095
		c0.379,0.096,0.708,0.235,1.042,0.427c0.284,0.237,0.521,0.521,0.665,0.9c0.14,0.379,0.233,0.899,0.233,1.515v1.043
		c-0.378,0-0.804,0-1.324,0.048c-0.521,0.049-1.041,0.142-1.563,0.237c-0.521,0.093-1.092,0.283-1.61,0.472
		c-0.521,0.191-1.043,0.428-1.47,0.758c-0.426,0.286-0.807,0.665-1.09,1.042c-0.284,0.427-0.476,0.9-0.52,1.42
		C205.869,84.812,205.921,85.332,206.063,85.808L206.063,85.808z M208.427,83.296c0.193-0.283,0.383-0.521,0.667-0.757
		c0.283-0.237,0.613-0.379,0.995-0.522c0.378-0.142,0.757-0.235,1.135-0.332c0.379-0.094,0.805-0.14,1.187-0.189
		c0.377-0.047,0.757-0.047,1.087-0.047c0,0.758,0,1.471,0,2.179c0,0.71,0,1.469,0,2.181c-0.094,0.094-0.283,0.235-0.471,0.377
		c-0.19,0.143-0.38,0.237-0.616,0.331c-0.237,0.097-0.475,0.19-0.714,0.238c-0.233,0.048-0.473,0.096-0.71,0.096
		c-0.425,0-0.803-0.048-1.184-0.144c-0.331-0.094-0.614-0.237-0.853-0.425c-0.236-0.189-0.426-0.474-0.566-0.761
		c-0.145-0.33-0.19-0.709-0.19-1.184C208.193,83.958,208.288,83.627,208.427,83.296L208.427,83.296z M219.703,87.465
		c0.095,0.094,0.288,0.188,0.569,0.283c0.282,0.096,0.663,0.19,1.04,0.285c0.428,0.094,0.902,0.188,1.422,0.236
		c0.521,0.047,1.043,0.096,1.611,0.096c0.996,0,1.896-0.189,2.7-0.617c0.805-0.378,1.516-0.946,2.084-1.61
		c0.568-0.663,1.04-1.467,1.373-2.367s0.475-1.849,0.475-2.844c0-1.183-0.142-2.178-0.426-2.983
		c-0.286-0.806-0.71-1.469-1.184-1.988c-0.478-0.522-1.044-0.9-1.661-1.138c-0.614-0.237-1.279-0.331-1.941-0.331
		c-0.474,0-0.851,0.046-1.23,0.141c-0.379,0.096-0.708,0.19-1.042,0.33c-0.332,0.144-0.569,0.287-0.852,0.476
		c-0.238,0.19-0.476,0.379-0.713,0.522v-6.869l-0.474-0.19l-3.789,0.428v1.041l1.991,0.428L219.703,87.465L219.703,87.465z
		 M221.978,77.233c0.143-0.096,0.283-0.238,0.474-0.378c0.19-0.144,0.427-0.237,0.663-0.381c0.233-0.094,0.521-0.189,0.807-0.284
		c0.283-0.048,0.614-0.096,0.943-0.096c0.478,0,0.997,0.096,1.471,0.286c0.475,0.188,0.901,0.475,1.279,0.9
		c0.379,0.427,0.664,0.947,0.901,1.608c0.235,0.665,0.33,1.47,0.33,2.418c0,0.994-0.142,1.846-0.381,2.605
		c-0.237,0.709-0.567,1.325-0.945,1.798c-0.379,0.474-0.804,0.805-1.327,1.043c-0.474,0.237-0.993,0.333-1.514,0.333
		c-0.664,0-1.279-0.096-1.755-0.237c-0.473-0.144-0.804-0.381-0.897-0.712v-8.904H221.978z M232.399,88.033h6.348v-0.994
		l-2.087-0.237V69.228l-0.471-0.283l-3.697,0.473v1.043l1.896,0.427v15.915l-1.989,0.237V88.033L232.399,88.033z M240.213,84.337
		c0.284,0.854,0.664,1.564,1.137,2.132c0.521,0.57,1.139,1.043,1.849,1.375c0.709,0.332,1.563,0.473,2.51,0.473
		c0.425,0,0.898-0.047,1.375-0.095c0.475-0.046,0.898-0.143,1.373-0.237c0.473-0.095,0.806-0.236,1.186-0.426
		c0.378-0.141,0.661-0.33,0.898-0.567l-0.425-0.996c-0.146,0.097-0.381,0.189-0.666,0.286c-0.284,0.094-0.565,0.141-0.897,0.234
		c-0.33,0.049-0.666,0.097-0.994,0.145c-0.334,0.046-0.666,0.046-0.951,0.046c-0.518,0-0.994-0.094-1.561-0.237
		c-0.521-0.142-0.995-0.377-1.422-0.758c-0.426-0.379-0.807-0.852-1.09-1.467c-0.281-0.617-0.474-1.423-0.474-2.369
		c0-0.048,0-0.094,0-0.142c0-0.049,0-0.096,0-0.143h8.717c0.047-0.283,0.093-0.614,0.093-0.946c0.05-0.378,0.05-0.807,0.05-1.28
		c-0.05-0.757-0.143-1.469-0.38-2.083c-0.237-0.617-0.521-1.139-0.898-1.563c-0.38-0.426-0.855-0.761-1.42-0.948
		c-0.573-0.237-1.188-0.332-1.853-0.283c-0.945,0-1.844,0.236-2.65,0.568c-0.805,0.378-1.466,0.852-2.038,1.466
		c-0.567,0.617-0.992,1.375-1.325,2.18c-0.329,0.854-0.474,1.755-0.474,2.795C239.835,82.539,239.976,83.484,240.213,84.337
		L240.213,84.337z M242.106,80.267c0.051-0.81,0.191-1.518,0.428-2.086s0.476-1.043,0.805-1.373c0.332-0.38,0.712-0.617,1.091-0.807
		c0.426-0.142,0.853-0.236,1.278-0.236c0.332,0,0.618,0.047,0.898,0.095c0.24,0.047,0.477,0.19,0.713,0.283
		c0.285,0.19,0.521,0.426,0.712,0.758c0.19,0.285,0.283,0.616,0.376,0.995c0.095,0.38,0.145,0.759,0.145,1.137
		c0,0.425,0,0.806,0,1.186L242.106,80.267L242.106,80.267z M258.358,88.033h7.528v-0.994l-3.362-0.285v-9.189
		c0.378-0.237,0.759-0.427,1.185-0.569c0.424-0.14,0.946-0.237,1.611-0.237c0.283,0,0.52,0,0.711,0.05
		c0.187,0,0.377,0.048,0.565,0.093c0.144,0.049,0.286,0.095,0.427,0.145c0.144,0.046,0.288,0.093,0.381,0.141V74.77
		c-0.093-0.047-0.237-0.047-0.427-0.047c-0.19,0-0.426,0-0.711,0c-0.38,0-0.757,0.047-1.138,0.19
		c-0.427,0.142-0.805,0.282-1.184,0.472c-0.379,0.191-0.711,0.427-0.993,0.665c-0.287,0.235-0.523,0.471-0.663,0.708v-1.801
		l-0.571-0.234l-3.125,0.947v0.711l1.658,0.9v9.521l-1.893,0.237V88.033L258.358,88.033z M268.966,84.337
		c0.283,0.854,0.663,1.564,1.138,2.132c0.521,0.57,1.138,1.043,1.844,1.375c0.714,0.332,1.565,0.473,2.513,0.473
		c0.427,0,0.9-0.047,1.377-0.095c0.471-0.046,0.897-0.143,1.373-0.237c0.427-0.095,0.802-0.236,1.184-0.426
		c0.377-0.141,0.662-0.33,0.897-0.567l-0.427-0.996c-0.14,0.097-0.378,0.189-0.661,0.286c-0.285,0.094-0.566,0.141-0.901,0.234
		c-0.33,0.049-0.663,0.097-0.994,0.145c-0.333,0.046-0.663,0.046-0.947,0.046c-0.52,0-0.994-0.094-1.561-0.237
		c-0.521-0.142-0.998-0.377-1.424-0.758c-0.429-0.379-0.804-0.852-1.089-1.467c-0.283-0.617-0.473-1.423-0.473-2.369
		c0-0.048,0-0.094,0-0.142c0-0.049,0-0.096,0-0.143h8.715c0.047-0.283,0.093-0.614,0.093-0.946c0.052-0.378,0.052-0.807,0.052-1.28
		c-0.052-0.757-0.145-1.469-0.383-2.083c-0.235-0.617-0.521-1.139-0.897-1.563c-0.382-0.426-0.854-0.761-1.422-0.948
		c-0.567-0.237-1.188-0.332-1.848-0.283c-0.947,0-1.846,0.236-2.654,0.568c-0.803,0.378-1.466,0.852-2.036,1.466
		c-0.564,0.617-0.993,1.375-1.323,2.18c-0.334,0.854-0.478,1.755-0.478,2.795C268.589,82.539,268.684,83.484,268.966,84.337
		L268.966,84.337z M270.814,80.267c0.046-0.81,0.189-1.518,0.427-2.086c0.236-0.568,0.47-1.043,0.805-1.373
		c0.33-0.38,0.71-0.617,1.09-0.807c0.426-0.142,0.85-0.236,1.277-0.236c0.33,0,0.614,0.047,0.9,0.095
		c0.234,0.047,0.471,0.19,0.71,0.283c0.284,0.19,0.521,0.426,0.711,0.758c0.189,0.285,0.284,0.616,0.38,0.995
		c0.096,0.38,0.141,0.759,0.141,1.137c0,0.425,0,0.806,0,1.186L270.814,80.267L270.814,80.267z M282.136,87.321
		c0.616,0.332,1.23,0.568,1.939,0.758c0.714,0.19,1.423,0.237,2.133,0.237c0.711,0,1.374-0.095,1.991-0.237
		c0.613-0.189,1.182-0.426,1.61-0.758c0.471-0.33,0.852-0.757,1.086-1.278c0.286-0.522,0.382-1.09,0.382-1.751
		c0-0.57-0.096-1.043-0.333-1.422s-0.519-0.758-0.853-1.043c-0.33-0.282-0.758-0.569-1.185-0.758
		c-0.425-0.236-0.898-0.425-1.325-0.614c-0.427-0.188-0.807-0.381-1.233-0.57c-0.377-0.189-0.758-0.378-1.038-0.616
		c-0.286-0.188-0.573-0.425-0.761-0.71c-0.188-0.283-0.283-0.567-0.239-0.9c0-0.331,0.097-0.663,0.239-0.9
		c0.144-0.237,0.333-0.473,0.568-0.615c0.236-0.142,0.521-0.283,0.854-0.331c0.33-0.094,0.663-0.094,1.043-0.094
		c0.236,0,0.473,0,0.708,0.047c0.189,0.047,0.379,0.095,0.571,0.19c0.14,0.095,0.281,0.14,0.426,0.235
		c0.141,0.095,0.236,0.19,0.378,0.33l0.52,1.329h0.996v-2.512c-0.188-0.094-0.379-0.188-0.663-0.283
		c-0.239-0.098-0.522-0.19-0.853-0.285c-0.331-0.094-0.664-0.143-1.042-0.189c-0.38-0.048-0.759-0.048-1.137-0.048
		c-0.33,0-0.711,0.048-1.091,0.095c-0.378,0.049-0.71,0.143-1.039,0.286c-0.332,0.142-0.665,0.282-0.995,0.472
		c-0.284,0.191-0.57,0.427-0.808,0.665c-0.234,0.235-0.426,0.568-0.568,0.899c-0.144,0.332-0.187,0.709-0.238,1.089
		c0,0.521,0.095,0.994,0.286,1.419c0.19,0.428,0.473,0.761,0.807,1.091c0.331,0.333,0.708,0.616,1.185,0.9
		c0.426,0.285,0.897,0.522,1.371,0.712c0.427,0.189,0.807,0.379,1.232,0.566c0.379,0.192,0.758,0.332,1.089,0.569
		c0.333,0.188,0.57,0.426,0.758,0.662c0.19,0.237,0.284,0.571,0.284,0.901c0,0.379-0.094,0.712-0.235,0.994
		c-0.144,0.284-0.381,0.521-0.617,0.711c-0.283,0.189-0.566,0.33-0.947,0.379c-0.377,0.096-0.757,0.096-1.229,0.096
		c-0.287,0-0.522-0.048-0.761-0.096c-0.236-0.049-0.426-0.094-0.664-0.189c-0.188-0.094-0.376-0.189-0.565-0.285
		c-0.191-0.142-0.378-0.284-0.568-0.426l-0.475-1.421h-0.993V87.321L282.136,87.321z M293.69,84.337
		c0.285,0.854,0.664,1.564,1.137,2.132c0.522,0.57,1.138,1.043,1.848,1.375c0.712,0.332,1.564,0.473,2.513,0.473
		c0.427,0,0.898-0.047,1.374-0.095c0.471-0.046,0.899-0.143,1.374-0.237c0.472-0.095,0.804-0.236,1.185-0.426
		c0.377-0.141,0.66-0.33,0.898-0.567l-0.429-0.996c-0.139,0.097-0.375,0.189-0.661,0.286c-0.286,0.094-0.568,0.141-0.902,0.234
		c-0.328,0.049-0.664,0.097-0.994,0.145c-0.33,0.046-0.661,0.046-0.946,0.046c-0.521,0-0.995-0.094-1.516-0.237
		c-0.521-0.142-0.994-0.377-1.418-0.758c-0.427-0.379-0.808-0.852-1.091-1.467c-0.286-0.617-0.474-1.423-0.474-2.369
		c0-0.048,0-0.094,0-0.142c0-0.049,0-0.096,0-0.143h8.714c0.047-0.283,0.097-0.614,0.097-0.946c0.046-0.378,0.046-0.807,0.046-1.28
		c-0.046-0.757-0.143-1.469-0.378-2.083c-0.239-0.617-0.522-1.139-0.901-1.563c-0.377-0.426-0.853-0.761-1.42-0.948
		c-0.568-0.237-1.184-0.332-1.848-0.283c-0.945,0-1.848,0.236-2.651,0.568c-0.806,0.378-1.471,0.852-2.039,1.466
		c-0.569,0.617-0.995,1.375-1.324,2.18c-0.333,0.854-0.474,1.755-0.474,2.795C293.265,82.539,293.409,83.484,293.69,84.337
		L293.69,84.337z M295.54,80.267c0.048-0.81,0.188-1.518,0.425-2.086s0.476-1.043,0.805-1.373c0.332-0.38,0.713-0.617,1.091-0.807
		c0.427-0.142,0.854-0.236,1.279-0.236c0.331,0,0.614,0.047,0.9,0.095c0.235,0.047,0.472,0.19,0.709,0.283
		c0.283,0.19,0.521,0.426,0.712,0.758c0.189,0.285,0.284,0.616,0.38,0.995c0.095,0.38,0.142,0.759,0.142,1.137
		c0,0.425,0,0.806,0,1.186L295.54,80.267L295.54,80.267z M306.245,85.808c0.141,0.474,0.425,0.898,0.756,1.279
		c0.332,0.378,0.758,0.661,1.235,0.897c0.471,0.237,1.041,0.332,1.654,0.332c0.477,0,0.948-0.047,1.327-0.095
		c0.428-0.095,0.759-0.188,1.09-0.332c0.33-0.142,0.616-0.283,0.853-0.472c0.234-0.189,0.474-0.379,0.663-0.616v0.331
		c0,0.285,0.049,0.521,0.143,0.663c0.095,0.143,0.186,0.283,0.332,0.38c0.142,0.094,0.282,0.141,0.474,0.141
		c0.14,0,0.331,0.049,0.474,0.049c0.427,0,0.805-0.049,1.229-0.144c0.43-0.095,0.759-0.237,0.996-0.378v-0.757h-1.518v-8.101
		c0-0.854-0.14-1.564-0.375-2.131c-0.237-0.57-0.571-0.996-0.997-1.326c-0.429-0.334-0.899-0.572-1.466-0.665
		c-0.57-0.142-1.138-0.188-1.755-0.188c-0.282,0-0.663,0.047-1.088,0.094c-0.426,0.048-0.854,0.144-1.28,0.236
		c-0.425,0.095-0.852,0.286-1.276,0.427c-0.428,0.19-0.759,0.379-1.045,0.617l0.427,1.041c0.284-0.142,0.568-0.235,0.854-0.379
		c0.286-0.094,0.616-0.191,0.9-0.284c0.283-0.095,0.613-0.143,0.852-0.189c0.283-0.048,0.521-0.048,0.759-0.048
		c0.474,0,0.898,0.048,1.279,0.095c0.376,0.096,0.709,0.235,1.04,0.427c0.285,0.237,0.521,0.521,0.665,0.9
		c0.142,0.379,0.235,0.899,0.235,1.515v1.043c-0.379,0-0.806,0-1.325,0.048c-0.521,0.049-1.04,0.142-1.562,0.237
		c-0.522,0.093-1.092,0.283-1.612,0.472c-0.521,0.191-1.042,0.428-1.467,0.758c-0.428,0.286-0.809,0.665-1.092,1.042
		c-0.284,0.427-0.474,0.9-0.521,1.42C306.009,84.812,306.055,85.332,306.245,85.808L306.245,85.808z M308.612,83.296
		c0.191-0.283,0.379-0.521,0.665-0.757c0.281-0.237,0.613-0.379,0.994-0.522c0.378-0.142,0.757-0.235,1.136-0.332
		c0.379-0.094,0.807-0.14,1.186-0.189c0.378-0.047,0.761-0.047,1.088-0.047c0,0.758,0,1.471,0,2.179c0,0.71,0,1.469,0,2.181
		c-0.094,0.094-0.286,0.235-0.473,0.377c-0.189,0.143-0.379,0.237-0.615,0.331c-0.237,0.097-0.477,0.19-0.71,0.238
		c-0.237,0.048-0.476,0.096-0.713,0.096c-0.427,0-0.803-0.048-1.185-0.144c-0.331-0.094-0.614-0.237-0.852-0.425
		c-0.237-0.189-0.427-0.474-0.567-0.761c-0.144-0.33-0.189-0.709-0.189-1.184C308.377,83.958,308.423,83.627,308.612,83.296
		L308.612,83.296z M319.366,88.033h7.531v-0.994l-3.365-0.285v-9.189c0.38-0.237,0.76-0.427,1.187-0.569
		c0.424-0.14,0.945-0.237,1.609-0.237c0.284,0,0.521,0,0.711,0.05c0.189,0,0.38,0.048,0.567,0.093
		c0.144,0.049,0.285,0.095,0.428,0.145c0.143,0.046,0.283,0.093,0.378,0.141V74.77c-0.095-0.047-0.235-0.047-0.427-0.047
		c-0.188,0-0.425,0-0.708,0c-0.38,0-0.761,0.047-1.138,0.19c-0.425,0.142-0.807,0.282-1.184,0.472
		c-0.381,0.191-0.712,0.427-0.997,0.665c-0.281,0.235-0.518,0.471-0.662,0.708v-1.801l-0.566-0.234l-3.08,0.947v0.711l1.655,0.9
		v9.521l-1.892,0.237v0.994H319.366z M329.977,84.337c0.236,0.807,0.616,1.517,1.09,2.085c0.473,0.569,1.088,1.043,1.752,1.374
		c0.711,0.331,1.517,0.474,2.414,0.474c0.428,0,0.901-0.048,1.326-0.094c0.428-0.049,0.854-0.143,1.279-0.237
		c0.427-0.095,0.76-0.238,1.094-0.38c0.327-0.141,0.612-0.33,0.851-0.52l-0.381-1.044c-0.143,0.097-0.377,0.189-0.615,0.286
		c-0.237,0.094-0.521,0.188-0.853,0.234c-0.282,0.049-0.613,0.097-0.947,0.145c-0.331,0.046-0.665,0.046-0.946,0.046
		c-0.477,0-0.998-0.094-1.517-0.331c-0.521-0.237-0.994-0.567-1.375-1.043c-0.425-0.473-0.757-1.088-0.994-1.848
		c-0.237-0.758-0.377-1.657-0.377-2.746c0-0.806,0.14-1.517,0.33-2.131c0.236-0.616,0.524-1.091,0.899-1.517
		c0.381-0.379,0.808-0.71,1.279-0.9c0.476-0.189,0.996-0.284,1.517-0.284c0.141,0,0.284,0,0.474,0.049
		c0.189,0,0.331,0.046,0.521,0.095c0.189,0.045,0.334,0.093,0.523,0.188c0.138,0.047,0.331,0.143,0.425,0.236l0.616,1.469h1.134
		v-2.843c-0.139-0.095-0.378-0.188-0.615-0.283c-0.234-0.095-0.519-0.142-0.803-0.19c-0.285-0.047-0.619-0.095-0.946-0.095
		c-0.334,0-0.665-0.046-0.997,0c-0.901,0.048-1.752,0.237-2.51,0.568c-0.759,0.332-1.47,0.806-2.037,1.468
		c-0.568,0.617-1.044,1.375-1.374,2.228c-0.332,0.852-0.475,1.849-0.475,2.938C329.596,82.681,329.738,83.533,329.977,84.337
		L329.977,84.337z M341.864,88.033h5.73v-0.994l-1.704-0.237v-9.427c0.286-0.189,0.569-0.38,0.854-0.475
		c0.283-0.143,0.566-0.236,0.899-0.282c0.283-0.098,0.568-0.144,0.853-0.144c0.285-0.047,0.568-0.047,0.806-0.047
		c0.66,0,1.138,0.093,1.515,0.33c0.38,0.237,0.664,0.569,0.804,1.044c0.193,0.474,0.285,1.042,0.333,1.753
		c0.048,0.712,0.048,1.467,0.048,2.416v4.831l-1.988,0.237v0.994h6.014v-0.994l-1.75-0.237v-5.875c0-1.089-0.051-2.037-0.142-2.84
		c-0.097-0.806-0.336-1.423-0.617-1.944c-0.285-0.52-0.71-0.898-1.184-1.137c-0.521-0.236-1.188-0.379-1.945-0.379
		c-0.33,0-0.661,0.049-1.042,0.143c-0.376,0.095-0.803,0.188-1.183,0.331c-0.426,0.144-0.805,0.332-1.231,0.569
		c-0.426,0.236-0.757,0.473-1.14,0.758l0.051-2.035v-5.212l-0.571-0.285l-3.691,0.475v1.043l1.987,0.425v15.964l-1.751,0.237v0.994
		H341.864z"/>
	<g>
		<path fill="#359EBF" d="M72.342,108.637c0,6.682-5.448,12.128-12.126,12.128c-6.679,0-12.126-5.446-12.126-12.128
			c0-6.677,5.447-12.125,12.126-12.125C66.894,96.512,72.342,101.911,72.342,108.637L72.342,108.637z"/>
		<path fill="#FF644A" d="M34.921,82.585c-6.536,6.537-10.563,15.063-10.563,25.247c0,9.757,2.795,15.821,9.426,23.446
			c2.178,2.797,1.943,5.116-1.422,7.913c-0.899-0.663-1.231-0.903-1.895-1.66l0,0c-7.721-7.719-12.599-18.333-12.599-29.699
			c0-11.794,4.878-22.404,12.599-29.7l0,0c7.343-7.719,17.906-12.599,29.701-12.599s22.357,4.88,29.7,12.599l0,0
			c7.72,7.343,12.599,17.906,12.599,29.7c0,11.419-4.879,21.98-12.599,29.699l0,0c-0.663,0.757-0.995,0.997-1.896,1.66
			c-3.364-2.797-3.601-5.447-1.421-8.243c6.678-7.581,9.426-13.405,9.426-23.162c0-10.186-4.073-18.712-10.563-25.247
			c-6.537-6.538-15.063-10.564-25.2-10.564C49.985,72.022,41.411,76.05,34.921,82.585L34.921,82.585z"/>
	</g>
	<path fill="#81BE5C" d="M45.01,95.139c-4.83,5.398-7.436,13.925-2.557,21.743c2.51,4.927,6.632,7.624,8.858,12.931
		c2.511,6.298,0.663,13.12-4.69,17.574c-4.546-1.519-7.91-3.648-7.91-3.648c4.216-4.122,7.248-9.567,2.037-15.868
		c-7.058-8.528-7.911-11.607-8.857-17.384c-0.332-5.779,0.046-8.813,2.226-14.068c5.494-10.99,14.353-17.149,25.957-17.338
		c11.605,0.188,20.463,6.348,25.958,17.338c2.179,5.256,2.511,8.289,2.226,14.068c-0.947,5.776-1.8,8.855-8.857,17.384
		c-5.211,6.301-2.18,11.746,2.037,15.868c0,0-3.315,2.13-7.911,3.648c-5.354-4.502-7.2-11.276-4.69-17.574
		c2.18-5.307,6.3-8.004,8.858-12.931c4.88-7.818,2.274-16.345-2.559-21.743c-4.025-4.737-9.663-6.68-15.063-6.632
		C54.627,88.459,49.226,90.401,45.01,95.139L45.01,95.139z"/>
</g>
<g>
	<path fill="#1D1D1B" d="M122.504,136.773v-1.043h-6.82v1.043h2.795v8.195h1.185v-8.195H122.504L122.504,136.773z M130.653,144.969
		h1.183v-9.238h-1.183v3.933h-4.5v-3.933h-1.185v9.238h1.185v-4.216h4.5V144.969L130.653,144.969z M140.219,136.729v-0.998h-5.066
		v9.238h5.827v-0.993h-4.688v-3.173h3.882v-0.998h-3.882v-3.076H140.219L140.219,136.729z M147.183,144.969h3.03
		c2.606,0,3.981-1.895,3.981-4.594c0-2.748-1.326-4.596-3.981-4.596h-3.03V144.969L147.183,144.969z M148.369,143.976v-7.247h1.703
		c1.896,0,2.843,1.229,2.843,3.599c0,2.37-0.947,3.599-2.843,3.599L148.369,143.976L148.369,143.976z M163.715,135.73h-1.183v6.018
		c0,1.374-0.617,2.32-2.229,2.32c-1.608,0-2.226-0.946-2.226-2.32v-6.018h-1.184v5.971c0,2.084,1.041,3.408,3.409,3.408
		c2.369,0,3.411-1.324,3.411-3.408V135.73L163.715,135.73z M172.525,144.969h1.231v-9.238h-1.186v6.967h-0.141l-4.264-6.967h-1.233
		v9.238h1.188v-7.058h0.142L172.525,144.969L172.525,144.969z M182.71,144.969h1.183v-9.238h-1.183v3.933h-4.5v-3.933h-1.183v9.238
		h1.183v-4.216h4.5V144.969L182.71,144.969z M188.348,144.969v-9.238h-1.188v9.238H188.348L188.348,144.969z M197.441,144.969v-1.09
		H192.8v-8.148h-1.187v9.238H197.441L197.441,144.969z M205.826,144.969v-1.09h-4.69v-8.148h-1.185v9.238H205.826L205.826,144.969z
		 M215.915,144.969h1.09l2.698-7.152h0.143v7.152h1.137v-9.238h-1.658l-2.841,7.486h-0.145l-2.795-7.486h-1.654v9.238h1.137v-7.152
		h0.141L215.915,144.969L215.915,144.969z M229.318,136.729v-0.998h-5.066v9.238h5.873v-0.993h-4.689v-3.173h3.883v-0.998h-3.883
		v-3.076H229.318L229.318,136.729z M232.637,144.969h3.032c2.602,0,3.976-1.895,3.976-4.594c0-2.748-1.325-4.596-3.976-4.596h-3.032
		V144.969L232.637,144.969z M233.817,143.976v-7.247h1.706c1.894,0,2.843,1.229,2.843,3.599c0,2.37-0.949,3.599-2.843,3.599
		L233.817,143.976L233.817,143.976z M243.671,144.969v-9.238h-1.183v9.238H243.671L243.671,144.969z M252.34,138.479h1.231
		c-0.33-1.846-1.564-2.937-3.365-2.937c-2.558,0-3.69,2.18-3.69,4.785c0,2.558,1.133,4.737,3.69,4.737
		c1.852,0,3.08-1.089,3.413-3.08h-1.23c-0.191,0.994-0.807,2.037-2.183,2.037c-1.607,0-2.462-1.516-2.462-3.742
		c0-2.228,0.854-3.741,2.462-3.741C251.486,136.584,252.15,137.486,252.34,138.479L252.34,138.479z M255.372,144.969h1.186
		l0.757-2.323h3.836l0.805,2.323h1.185v-0.14l-3.127-9.099h-1.516l-3.125,9.099V144.969L255.372,144.969z M257.646,141.605
		l1.563-4.598h0.141l1.566,4.598H257.646L257.646,141.605z M271.523,144.969v-1.09h-4.641v-8.148h-1.186v9.238H271.523
		L271.523,144.969z M283.649,136.773v-1.043h-6.821v1.043h2.794v8.195h1.186v-8.195H283.649L283.649,136.773z M291.418,144.969
		h1.327v-0.14l-2.653-3.746v-0.142c1.233-0.045,2.511-0.614,2.511-2.558c0-2.037-1.325-2.653-3.078-2.653h-3.413v9.238h1.186v-3.978
		h1.373L291.418,144.969L291.418,144.969z M287.297,139.995v-3.267h2.131c1.14,0,1.943,0.331,1.943,1.655
		c0,1.328-0.853,1.611-1.943,1.611H287.297L287.297,139.995z M302.026,135.73h-1.182v6.018c0,1.374-0.614,2.32-2.227,2.32
		c-1.611,0-2.224-0.946-2.224-2.32v-6.018h-1.188v5.971c0,2.084,1.042,3.408,3.411,3.408c2.37,0,3.408-1.324,3.408-3.408V135.73
		L302.026,135.73z M309.846,138.195h1.231c0-1.422-1.042-2.606-3.127-2.606c-2.228,0-3.031,1.185-3.031,2.513
		c0,1.847,1.42,2.273,2.935,2.604c1.328,0.286,2.462,0.475,2.462,1.706c0,0.947-0.518,1.657-2.176,1.657
		c-1.704,0-2.131-0.852-2.179-1.752h-1.231c0.048,1.087,0.522,2.793,3.41,2.793c2.748,0,3.41-1.469,3.41-2.698
		c0-1.941-1.659-2.322-3.079-2.652c-1.279-0.284-2.272-0.473-2.272-1.657c0-0.664,0.237-1.469,1.799-1.469
		C309.516,136.584,309.846,137.531,309.846,138.195L309.846,138.195z M320.172,136.773v-1.043h-6.818v1.043h2.792v8.195h1.184
		v-8.195H320.172L320.172,136.773z"/>
</g>
</svg>
